<?xml version="1.0" encoding="UTF-8" standalone="no"?>
<svg
   xmlns:dc="http://purl.org/dc/elements/1.1/"
   xmlns:cc="http://creativecommons.org/ns#"
   xmlns:rdf="http://www.w3.org/1999/02/22-rdf-syntax-ns#"
   xmlns:svg="http://www.w3.org/2000/svg"
   xmlns="http://www.w3.org/2000/svg"
   xmlns:sodipodi="http://sodipodi.sourceforge.net/DTD/sodipodi-0.dtd"
   xmlns:inkscape="http://www.inkscape.org/namespaces/inkscape"
   version="1.1"
   id="svg2"
   width="497.30344"
   height="108.09816"
   viewBox="0 0 497.30344 108.09816"
   sodipodi:docname="3it.svg"
   inkscape:version="1.0.1 (3bc2e813f5, 2020-09-07)">
  <metadata
     id="metadata8">
    <rdf:RDF>
      <cc:Work
         rdf:about="">
        <dc:format>image/svg+xml</dc:format>
        <dc:type
           rdf:resource="http://purl.org/dc/dcmitype/StillImage" />
        <dc:title />
      </cc:Work>
    </rdf:RDF>
  </metadata>
  <defs
     id="defs6">
    <clipPath
       id="clipPath19">
      <path
         d="M 0,0 H 3039.31 V 479.281 H 0 Z"
         id="path21" />
    </clipPath>
  </defs>
  <sodipodi:namedview
     pagecolor="#ffffff"
     bordercolor="#666666"
     borderopacity="1"
     objecttolerance="10"
     gridtolerance="10"
     guidetolerance="10"
     inkscape:pageopacity="0"
     inkscape:pageshadow="2"
     inkscape:window-width="1920"
     inkscape:window-height="1057"
     id="namedview4"
     showgrid="false"
     inkscape:pagecheckerboard="true"
     inkscape:zoom="1.8269231"
     inkscape:cx="352.8954"
     inkscape:cy="158.61624"
     inkscape:window-x="-8"
     inkscape:window-y="-8"
     inkscape:window-maximized="1"
     inkscape:current-layer="g10"
     inkscape:document-rotation="0" />
  <g
     inkscape:groupmode="layer"
     inkscape:label="Image"
     id="g10"
     transform="translate(-76.589474,-69.688684)">
    <path
       style="fill:#000000;stroke-width:0.32"
       d="m 164.68542,176.9122 c -8.38611,-2.9861 -11.37257,-13.52447 -5.82249,-20.54586 2.67117,-3.37928 6.47232,-4.98803 11.15485,-4.72104 4.84957,0.27651 8.61347,2.75773 10.72535,7.07031 3.22708,6.58987 0.6392,14.3716 -5.84019,17.56139 -1.89654,0.93366 -2.45079,1.05156 -5.33494,1.13482 -2.4989,0.0721 -3.59059,-0.0396 -4.88258,-0.49962 z m -6.81595,-70.30167 V 70.610528 h 11.2 11.2 v 36.000002 36 h -11.2 -11.2 z m 356.16035,16.74151 c -2.25462,-1.16126 -2.59619,-3.55975 -0.66483,-4.6682 l 0.91254,-0.52373 -0.92403,-0.86318 c -1.19555,-1.11681 -1.16483,-1.7096 0.15706,-3.03151 0.91593,-0.91592 1.01049,-1.13971 0.61891,-1.46469 -2.16694,-1.7984 -1.66355,-5.72631 0.93709,-7.31193 1.26912,-0.77379 3.91507,-0.8507 5.56403,-0.16172 1.01014,0.42207 1.21834,0.42207 1.8209,0 0.3742,-0.2621 1.08035,-0.47655 1.56918,-0.47655 0.77421,0 0.8888,0.12376 0.8888,0.96 0,0.73302 -0.14512,0.96 -0.61382,0.96 -1.22794,0 -1.64224,0.33205 -1.27367,1.02078 0.51312,0.95874 0.40947,3.38539 -0.18323,4.28996 -0.82483,1.25886 -2.38992,2.04672 -4.06845,2.04806 -1.84672,0.002 -3.14083,0.46343 -3.14083,1.12119 0,0.66939 1.30323,1.12 3.23914,1.12 3.75324,0 5.8663,1.25467 5.8663,3.48322 0,2.74762 -1.812,3.94692 -6.22544,4.12035 -2.6896,0.10569 -3.20592,0.034 -4.47965,-0.62205 z m 6.73555,-1.70973 c 2.09872,-1.0853 0.57488,-2.77834 -2.55331,-2.8368 -2.03382,-0.038 -3.22259,0.62233 -3.22259,1.79006 0,1.31681 3.89027,2.02183 5.7759,1.04674 z m -1.07654,-10.44756 c 1.49162,-1.40131 0.45786,-4.10422 -1.5697,-4.10422 -1.15712,0 -2.48966,1.28454 -2.48966,2.39999 0,1.09125 1.33322,2.4 2.44483,2.4 0.48064,0 1.2072,-0.3131 1.61453,-0.69577 z m 22.18064,9.78911 c 0,-1.68667 -0.108,-3.01108 -0.24,-2.94313 -3.54986,1.82731 -5.7808,1.44312 -7.66141,-1.31937 -2.15401,-3.16407 -1.34089,-9.22256 1.49658,-11.15083 1.50841,-1.0251 3.99085,-0.99462 5.55702,0.0682 l 1.16154,0.78822 0.19782,-0.78822 c 0.16784,-0.66871 0.38666,-0.78823 1.44314,-0.78823 h 1.24531 v 9.6 9.6 h -1.6 -1.6 z m -0.84317,-4.95656 c 0.81802,-0.64343 0.84317,-0.76648 0.84317,-4.1232 0,-3.32435 -0.031,-3.48023 -0.78874,-3.97677 -1.17552,-0.77022 -3.11577,-0.67 -3.93622,0.20333 -1.78176,1.89659 -1.47622,7.07195 0.48496,8.21423 0.92128,0.53661 2.49837,0.38916 3.39683,-0.31759 z m -270.83045,2.68095 c -2.03261,-1.05447 -3.20281,-3.54545 -3.20281,-6.81773 0,-3.22096 1.10595,-5.47896 3.21866,-6.57149 1.28583,-0.66492 3.45915,-0.58721 4.69777,0.16799 l 1.04,0.6341 v -3.3553 -3.355291 h 1.6 1.6 v 9.759991 9.76 h -1.28 c -1.06667,0 -1.28,-0.10666 -1.28,-0.64 0,-0.80697 -0.1549,-0.80114 -1.35148,0.0509 -1.32255,0.94173 -3.61276,1.10835 -5.04214,0.36682 z m 4.82425,-2.56672 0.92937,-0.549 v -3.59285 c 0,-3.35001 -0.0481,-3.62654 -0.7112,-4.09101 -0.39116,-0.27397 -1.26171,-0.49814 -1.93455,-0.49814 -2.30733,0 -3.3507,1.94435 -3.04186,5.66858 0.12603,1.51975 0.30658,1.93956 1.16344,2.70517 1.16014,1.03659 2.25977,1.14587 3.5948,0.35725 z m 52.28342,2.66305 c -3.33009,-1.45101 -4.66734,-6.87909 -2.6973,-10.94865 0.95633,-1.97553 2.24262,-2.79593 4.62113,-2.94738 2.38864,-0.15209 3.92948,0.4294 5.05588,1.90802 1.78298,2.34053 1.98979,7.00657 0.42864,9.67048 -1.40083,2.39032 -4.80052,3.45384 -7.40835,2.31753 z m 4.15929,-2.8783 c 0.93757,-0.93757 1.26464,-2.53444 1.03585,-5.05746 -0.22006,-2.42691 -1.06161,-3.45829 -2.82174,-3.45829 -2.12821,0 -3.1553,2.28625 -2.69221,5.99268 0.37817,3.02681 2.67837,4.3228 4.4781,2.52307 z m 18.52845,2.71318 c -0.96928,-0.59105 -1.72179,-2.03697 -1.72179,-3.30832 0,-2.26457 2.3376,-4.15904 5.97453,-4.84195 l 2.18547,-0.41037 -0.0543,-1.07966 c -0.10096,-2.00718 -2.43111,-2.60324 -4.23687,-1.08379 l -0.98025,0.82484 -0.96429,-0.68663 c -1.11703,-0.79539 -1.16775,-1.00548 -0.40429,-1.67487 1.79117,-1.57049 5.44262,-2.05047 7.64573,-1.00503 1.88163,0.89289 2.14621,1.81942 2.29488,8.03684 l 0.132,5.52 h -1.63632 c -1.24115,0 -1.63629,-0.11591 -1.63629,-0.48 0,-0.60298 0.0262,-0.60543 -1.64506,0.15298 -1.7686,0.80252 -3.67334,0.81635 -4.95315,0.036 z m 5.55821,-2.63998 c 0.94547,-0.58287 1.04,-0.78422 1.04,-2.21505 0,-0.86565 -0.11786,-1.57391 -0.26192,-1.57391 -0.14406,0 -1.00749,0.22141 -1.91872,0.49203 -2.70294,0.80268 -3.64006,2.32728 -2.27162,3.69571 0.76327,0.76328 1.70602,0.65311 3.41226,-0.39878 z m 9.15651,2.88396 c -1.17078,-0.57921 -1.39651,-1.66024 -1.39651,-6.68797 v -4.78494 h -0.96 c -0.90666,0 -0.96,-0.0711 -0.96,-1.28 0,-1.20889 0.0533,-1.28 0.96,-1.28 h 0.96 v -2.24 -2.24 h 1.6 1.6 v 2.24 2.24 h 1.44 1.44 v 1.28 1.28 h -1.4488 -1.44877 l 0.0888,4.55999 0.0888,4.56 h 1.37488 1.37488 l -0.0949,1.28 -0.0949,1.28 -1.92,0.0655 c -1.056,0.036 -2.22758,-0.0866 -2.60349,-0.27261 z m 15.95488,-0.31086 c -1.96989,-0.97508 -3.00896,-2.88126 -3.20089,-5.87208 -0.32074,-4.99799 1.87033,-7.84997 6.03088,-7.84997 3.13376,0 5.02662,1.65345 5.78809,5.05602 0.54461,2.43357 0.003,5.49742 -1.25085,7.06669 -1.82528,2.28578 -4.71366,2.91282 -7.36723,1.59934 z m 4.39175,-2.50518 c 1.42464,-1.42466 1.66304,-5.98152 0.40169,-7.67805 -0.88032,-1.18398 -2.85315,-1.29828 -3.86259,-0.22377 -0.82742,0.88073 -1.25146,3.73624 -0.86259,5.80896 0.4424,2.35827 2.87872,3.53761 4.32349,2.09286 z m 31.68774,2.26325 -0.95088,-0.95089 v -4.98462 -4.98461 h -0.96 c -0.90666,0 -0.96,-0.0711 -0.96,-1.28 0,-1.20889 0.0533,-1.28 0.96,-1.28 h 0.96 v -2.24 -2.24 h 1.6 1.6 v 2.24 2.24 h 1.44 1.44 v 1.28 1.28 h -1.4488 -1.44877 l 0.0888,4.55999 0.0888,4.56 h 1.37488 1.37488 l -0.0949,1.28 -0.0949,1.28 -2.00912,0.0955 c -1.86166,0.0885 -2.07888,0.0257 -2.96,-0.85538 z m 9.76317,0.47393 c -0.53127,-0.23149 -1.41927,-0.93718 -1.97331,-1.56822 -2.53492,-2.8871 -1.99949,-9.39022 0.94579,-11.48745 1.20432,-0.85756 4.2511,-1.16754 5.67568,-0.57746 2.05405,0.85081 3.5119,3.40458 3.516,6.15907 l 0.003,1.2 h -4.34544 -4.34541 l 0.2233,1.04 c 0.31216,1.45401 0.68627,2.07888 1.60502,2.68087 1.00381,0.65773 2.83446,0.40737 3.8249,-0.52308 l 0.71059,-0.66756 1.18029,0.6964 1.18032,0.6964 -0.7368,0.8007 c -1.64333,1.7859 -5.21786,2.52848 -7.46272,1.55033 z m 5.14861,-9.39406 c -0.27972,-1.19058 -1.61488,-2.31999 -2.74266,-2.31999 -1.12778,0 -2.46294,1.12941 -2.74266,2.31999 l -0.20672,0.88 h 2.94938 2.94938 z m 8.29139,9.39406 c -0.53127,-0.23149 -1.41927,-0.93718 -1.97331,-1.56822 -2.53492,-2.8871 -1.99949,-9.39022 0.94579,-11.48745 1.19184,-0.84866 4.10624,-1.14841 5.78355,-0.59485 1.07734,0.35555 3.08992,2.24658 3.08992,2.90331 0,0.16751 -0.53008,0.52604 -1.17795,0.79674 -1.16778,0.48793 -1.1857,0.48368 -2.07882,-0.49416 -0.77305,-0.8464 -1.08944,-0.97237 -2.23005,-0.88788 -1.70553,0.12633 -2.48358,1.11909 -2.72521,3.47728 -0.49405,4.82097 2.37411,7.43717 5.08886,4.64186 l 1.06765,-1.09931 1.02774,0.65074 c 0.56528,0.3579 1.02778,0.76955 1.02778,0.91476 0,0.54787 -1.63475,2.17669 -2.68464,2.6749 -1.30656,0.62001 -3.82339,0.65526 -5.16131,0.0723 z m 42.23008,-0.004 c -2.24349,-0.9772 -3.49261,-3.52367 -3.48419,-7.10297 0.0102,-4.37206 2.16505,-6.83078 5.99596,-6.84165 3.99892,-0.0114 5.97812,2.42939 5.98231,7.37735 0.003,2.94599 -1.1817,5.28667 -3.18602,6.29738 -1.61824,0.81603 -3.79958,0.92694 -5.30806,0.26989 z m 3.7136,-2.43937 c 1.02733,-0.54982 1.58227,-2.04871 1.58227,-4.27379 0,-3.36243 -0.80186,-4.67672 -2.85325,-4.67672 -1.51171,0 -2.11974,0.63965 -2.59046,2.72516 -0.55066,2.43966 0.18313,5.86836 1.35699,6.34066 0.69952,0.28145 1.8632,0.22787 2.50445,-0.11531 z m 16.37366,2.21154 c -4.46467,-2.20998 -4.32678,-11.4178 0.1993,-13.30892 1.64115,-0.68571 4.74502,-0.43884 6.03545,0.48004 2.04368,1.45522 3.04916,5.10127 2.34381,8.49896 -0.86832,4.18261 -4.83318,6.18383 -8.57856,4.32992 z m 4.37795,-2.44206 c 1.47933,-1.21783 1.67428,-6.16461 0.3112,-7.89747 -0.88147,-1.1206 -2.7446,-1.14653 -3.77238,-0.0525 -0.81302,0.8654 -1.23392,3.73958 -0.84851,5.79398 0.43718,2.33037 2.71417,3.46947 4.30969,2.15598 z m 43.35245,2.50894 c -1.48637,-0.90638 -1.72179,-2.03255 -1.72179,-8.2367 v -5.55224 h 1.6 1.6 v 5.3904 c 0,4.81574 0.0624,5.44686 0.58518,5.92 0.8121,0.73492 2.00448,0.66139 3.28749,-0.20271 l 1.08733,-0.73231 0.0879,-5.18769 0.0879,-5.18769 h 1.5921 1.59206 v 7.03999 7.04 h -1.44 c -1.22666,0 -1.44,-0.0948 -1.44,-0.64 0,-0.80535 -0.0179,-0.80385 -1.92,0.16 -1.88333,0.95436 -3.6344,1.02056 -4.99821,0.18894 z m 15.34893,-0.007 c -0.94733,-0.43015 -1.59098,-1.04879 -2.24,-2.15298 -0.81872,-1.39289 -0.91072,-1.8403 -0.91072,-4.4294 0,-2.48222 0.1105,-3.07497 0.8,-4.29165 1.16525,-2.05615 2.19549,-2.6948 4.59341,-2.84749 1.44323,-0.0919 2.31248,0.0188 3.02,0.38472 1.87779,0.97104 3.26035,3.59421 3.2648,6.19442 l 0.003,1.04 h -4.32 c -4.05821,0 -4.32,0.0375 -4.32,0.61917 0,1.81872 1.48617,3.54083 3.05568,3.54083 0.55827,0 1.54611,-0.36042 2.19526,-0.80094 l 1.18026,-0.80093 1.11552,0.75802 1.11552,0.75802 -1.12237,0.98546 c -1.94384,1.7067 -5.01693,2.13804 -7.42915,1.04275 z m 5.31136,-9.38239 c -0.64637,-2.29232 -3.12102,-2.92555 -4.59363,-1.17544 -0.45565,0.5415 -0.82845,1.2615 -0.82845,1.6 0,0.56132 0.25133,0.61544 2.85766,0.61544 h 2.85767 z m -281.90208,2.64028 v -7.03999 h 1.6 1.6 v 7.03999 7.04 h -1.6 -1.6 z m 6.4,0 v -7.03999 h 1.6 c 1.4832,0 1.6,0.057 1.6,0.78145 v 0.78144 l 1.36,-0.77759 c 2.01835,-1.15401 4.36441,-1.09377 5.75495,0.14776 l 1.04505,0.93307 0.0994,6.10693 0.0994,6.10693 h -1.6194 -1.6194 v -5.14103 c 0,-2.9319 -0.14235,-5.40701 -0.33126,-5.76 -0.61009,-1.13996 -3.55627,-0.61963 -4.54384,0.80249 -0.12931,0.1862 -0.23731,2.53454 -0.24,5.21854 l -0.005,4.88 h -1.6 -1.6 z m 14.72,0 v -7.03999 h 1.44 c 1.32267,0 1.44,0.0652 1.44,0.8 0,0.44 0.0573,0.8 0.12734,0.8 0.07,0 0.75403,-0.35827 1.52,-0.79615 1.671,-0.95526 4.20366,-1.08864 5.35526,-0.28203 1.38089,0.96721 1.6374,2.23738 1.6374,8.1079 v 5.45027 h -1.6 -1.6 v -5.14103 c 0,-2.9319 -0.14235,-5.40701 -0.33126,-5.76 -0.44421,-0.83001 -2.37347,-0.82099 -3.74874,0.0175 l -1.04,0.63409 v 5.12471 5.1247 h -1.6 -1.6 v -7.04 z m 30.27837,6.48 c -0.0906,-0.308 -0.90189,-3.224 -1.80279,-6.48 -0.90089,-3.256 -1.71014,-6.17199 -1.79833,-6.47999 -0.13747,-0.48005 0.0681,-0.56 1.43961,-0.56 1.24909,0 1.63536,0.12282 1.76116,0.56 0.0886,0.308 0.6206,2.48945 1.18217,4.84766 0.60858,2.55568 1.11693,4.10684 1.25847,3.84 0.13062,-0.24621 0.71894,-2.42767 1.30742,-4.84767 l 1.06992,-4.39999 h 1.532 c 0.88179,0 1.532,0.14639 1.532,0.34492 0,0.30624 -1.41373,5.36647 -3.23386,11.57507 l -0.63324,2.16 h -1.7249 c -1.36662,0 -1.7591,-0.1163 -1.88963,-0.56 z m 31.48163,-6.48 v -7.03999 h 1.6 1.6 v 7.03999 7.04 h -1.6 -1.6 z m 20.16,0 v -7.03999 h 1.44 c 1.32266,0 1.44,0.0652 1.44,0.8 0,0.44 0.0573,0.8 0.12733,0.8 0.07,0 0.75405,-0.35827 1.52,-0.79615 1.67101,-0.95526 4.20368,-1.08864 5.35526,-0.28203 1.3809,0.96721 1.63741,2.23738 1.63741,8.1079 v 5.45027 h -1.6 -1.6 v -4.93916 c 0,-5.97937 -0.16762,-6.58128 -1.83206,-6.57963 -0.66439,6.4e-4 -1.67594,0.28654 -2.24794,0.63529 l -1.04,0.6341 v 5.1247 5.1247 h -1.6 -1.6 z m 58.56,-2.72 v -9.759991 h 1.6 1.6 v 3.541791 3.54179 l 1.01907,-0.72565 c 0.68087,-0.48481 1.62192,-0.76924 2.83552,-0.85703 1.64387,-0.11891 1.91469,-0.0436 2.85091,0.79293 1.33744,1.195 1.58282,2.49908 1.60055,8.50616 l 0.0139,4.72 h -1.76 -1.76 v -5.376 c 0,-3.75466 -0.11581,-5.4918 -0.384,-5.75999 -0.61606,-0.61606 -2.6353,-0.45825 -3.57283,0.27922 l -0.84317,0.66323 v 5.09677 5.09677 h -1.6 -1.6 z m 14.4,2.72 v -7.03999 h 1.44 c 1.32266,0 1.44,0.0652 1.44,0.8 0,0.44 0.0573,0.8 0.12733,0.8 0.07,0 0.75405,-0.35827 1.52,-0.79615 1.64765,-0.94191 4.20441,-1.08813 5.32329,-0.30443 1.47357,1.03214 1.66938,1.9663 1.66938,7.96468 v 5.61589 h -1.6 -1.6 v -5.14103 c 0,-2.9319 -0.14234,-5.40701 -0.33126,-5.76 -0.4442,-0.83001 -2.37348,-0.82099 -3.74874,0.0175 l -1.04,0.63409 v 5.12471 5.1247 h -1.6 -1.6 v -7.04 z m 28.48,-2.72 v -9.759991 h 1.6 1.6 v 9.759991 9.76 h -1.6 -1.6 z m 33.6,2.72 v -7.03999 h 1.6 1.6 v 7.03999 7.04 h -1.6 -1.6 z m -244.16,-4.78814 c 0,-0.16949 0.288,-1.03882 0.64,-1.93185 0.79315,-2.01224 0.80084,-1.92 -0.16,-1.92 -0.76444,0 -0.8,-0.0853 -0.8,-1.92 v -1.920001 h 1.76 1.76 l 9.6e-4,2.000001 c 10e-4,2.72091 -1.33712,6 -2.44892,6 -0.41364,0 -0.75204,-0.13867 -0.75204,-0.30815 z m 6.08,-6.41185 v -1.600001 h 1.6 1.6 v 1.600001 1.6 h -1.6 -1.6 z m 82.88,0 v -1.600001 h 1.6 1.6 v 1.600001 1.6 h -1.6 -1.6 z m 155.2,0 v -1.600001 h 1.6 1.6 v 1.600001 1.6 h -1.6 -1.6 z m -63.04,-14.720002 v -9.6 h 1.6 c 1.39453,0 1.6,0.08342 1.6,0.649581 0,0.644589 0.007,0.644313 0.92669,-0.03556 2.32544,-1.719258 5.90989,-0.753696 7.30445,1.967622 1.58963,3.101984 1.25155,7.518656 -0.75498,9.862829 -1.7689,2.066557 -4.00534,2.38913 -6.43616,0.928317 l -1.04,-0.624992 v 3.226099 3.2261 h -1.6 -1.6 z m 7.34682,1.766816 c 1.3126,-0.678771 2.07692,-2.841469 1.83449,-5.190659 -0.22697,-2.199127 -1.01142,-3.356867 -2.5368,-3.744 -0.93856,-0.238205 -1.3351,-0.163642 -2.29952,0.43239 l -1.16534,0.720231 0.0902,3.530313 0.0902,3.530317 1.11501,0.597296 c 1.34573,0.720887 1.68909,0.735725 2.87181,0.124112 z m -178.22682,2.657201 c -1.32173,-0.375588 -3.2,-1.725668 -3.2,-2.300122 0,-0.221946 0.40014,-0.699376 0.88921,-1.060957 l 0.8892,-0.657418 1.09871,0.917239 c 0.76626,0.639702 1.45045,0.917241 2.2612,0.917241 1.30477,0 2.34652,-0.873523 2.16595,-1.816192 -0.11041,-0.576409 -0.5671,-0.850051 -4.18956,-2.510313 -2.10068,-0.962794 -2.79471,-1.958528 -2.79471,-4.009604 0,-3.503062 5.44577,-5.074995 8.49506,-2.452112 l 0.82525,0.709859 -0.978,0.936986 -0.978,0.936986 -0.74278,-0.697805 c -1.23052,-1.156013 -3.74153,-0.882976 -3.74153,0.406835 0,0.921405 0.73035,1.52521 2.72,2.248714 2.2202,0.807337 3.35315,1.672089 3.89747,2.974832 0.98691,2.362016 -0.30011,4.763123 -2.93747,5.480215 -1.5067,0.40967 -2.16794,0.405289 -3.68,-0.02438 z m 12.32,0.146918 c -0.352,-0.08516 -0.964,-0.453552 -1.36,-0.818659 -0.68837,-0.634676 -0.72,-0.886298 -0.72,-5.728055 v -5.064221 h -0.96 c -0.90667,0 -0.96,-0.07111 -0.96,-1.28 0,-1.20889 0.0533,-1.28 0.96,-1.28 h 0.96 v -2.4 -2.4 h 1.6 1.6 v 2.4 2.4 h 1.28 1.28 v 1.28 1.28 h -1.28 -1.28 v 4.445763 c 0,4.816945 0.0949,5.063556 1.78543,4.639261 0.72233,-0.181292 0.77457,-0.108435 0.77457,1.080285 0,1.171655 -0.0808,1.290858 -1,1.474692 -1.08508,0.217014 -1.68989,0.210454 -2.68,-0.02906 z m 15.00299,-0.229936 c -1.42545,-0.620432 -1.72299,-1.820387 -1.72299,-6.948749 v -4.43225 h -0.96 c -0.90667,0 -0.96,-0.07111 -0.96,-1.28 0,-1.20889 0.0533,-1.28 0.96,-1.28 h 0.96 v -2.4 -2.4 h 1.6 1.6 v 2.4 2.4 h 1.44 1.44 v 1.28 1.28 h -1.44 -1.44 v 4.308743 c 0,3.966345 0.0503,4.33568 0.63343,4.647744 0.34839,0.186451 0.99639,0.247907 1.44,0.136566 0.76084,-0.190957 0.80657,-0.130262 0.80657,1.070387 0,1.222221 -0.0477,1.280708 -1.2,1.471169 -1.65333,0.27328 -2.01282,0.2444 -3.15701,-0.25361 z m 8.86698,0.05125 c -0.59951,-0.215734 -1.39151,-0.798391 -1.76,-1.294791 -0.6125,-0.825129 -0.67901,-1.408406 -0.77538,-6.8 l -0.10542,-5.897456 h 1.62542 1.62541 v 4.75225 c 0,2.630685 0.15713,5.203002 0.35198,5.761926 0.41068,1.178084 1.33415,1.520564 2.69992,1.0013 2.03168,-0.772452 2.0681,-0.885888 2.0681,-6.445073 V 76.37053 h 1.6 1.6 v 7.04 7.040001 h -1.44 c -1.22666,0 -1.44,-0.09482 -1.44,-0.64 0,-0.786823 -0.0558,-0.787786 -1.54765,-0.02672 -1.65418,0.84391 -3.2101,1.043987 -4.50238,0.578963 z m 14.4476,-0.07035 c -0.57962,-0.251907 -1.18343,-0.823888 -1.36,-1.288307 -0.17466,-0.45939 -0.31757,-2.91388 -0.31757,-5.454424 v -4.619168 h -0.96 c -0.90666,0 -0.96,-0.07111 -0.96,-1.28 0,-1.20889 0.0533,-1.28 0.96,-1.28 h 0.96 v -2.4 -2.4 h 1.6 1.6 v 2.4 2.4 h 1.44 1.44 v 1.28 1.28 h -1.44 -1.44 v 4.308743 c 0,3.966345 0.0503,4.33568 0.63344,4.647744 0.34838,0.186451 0.99638,0.247907 1.44,0.136566 0.76083,-0.190957 0.80656,-0.130262 0.80656,1.070387 0,1.222221 -0.0477,1.280708 -1.2,1.471169 -1.66202,0.274713 -2.0113,0.244966 -3.20243,-0.272711 z m 39.3688,0.253104 c -0.39248,-0.07581 -1.00448,-0.507622 -1.36,-0.959578 -0.5848,-0.743456 -0.64637,-1.290108 -0.64637,-5.738579 v -4.916845 h -0.96 c -0.90666,0 -0.96,-0.07111 -0.96,-1.28 0,-1.20889 0.0533,-1.28 0.96,-1.28 h 0.96 v -2.4 -2.4 h 1.6 1.6 v 2.4 2.4 h 1.44 1.44 v 1.28 1.28 h -1.44 -1.44 v 4.280819 c 0,4.778228 0.17494,5.222458 1.90688,4.842061 0.95594,-0.209958 0.97312,-0.19143 0.97312,1.049824 0,1.211514 -0.0494,1.271725 -1.2,1.461905 -1.26186,0.208572 -1.7081,0.205526 -2.87363,-0.01962 z m 9.07757,-0.227843 c -1.77284,-0.654791 -3.02772,-2.001347 -3.57146,-3.832314 -1.99571,-6.720317 2.67821,-12.37472 8.07101,-9.764109 1.74736,0.845878 2.87721,2.691885 3.16944,5.178397 l 0.2152,1.830867 h -4.40595 -4.40592 l 0.18726,1.153847 c 0.50035,3.083366 3.39757,4.270041 5.3503,2.191446 l 0.69863,-0.743677 1.07981,0.699194 c 1.22176,0.791107 1.33193,1.185882 0.52774,1.891005 -1.73245,1.519021 -4.86832,2.15169 -6.91606,1.395344 z m 4.59606,-9.366536 c 0,-1.222739 -1.16038,-2.340624 -2.4296,-2.340624 -1.47763,0 -2.00944,0.272544 -2.54224,1.302886 -0.9079,1.755697 -0.74003,1.897114 2.25184,1.897114 h 2.72 z m 17.51696,9.372439 c -1.5871,-0.580115 -2.0719,-1.01401 -2.87338,-2.571655 -0.83507,-1.622995 -1.13849,-5.623734 -0.56265,-7.419392 1.19945,-3.740416 5.12893,-5.396634 7.80662,-3.290381 l 0.83245,0.654816 v -3.383226 -3.383225 h 1.6 1.6 v 9.76 9.760001 h -1.28 c -0.90115,0 -1.28,-0.13648 -1.28,-0.461114 0,-0.791459 -0.59072,-0.873751 -1.51315,-0.210797 -1.20221,0.864039 -2.87943,1.075139 -4.32989,0.544973 z m 4.16304,-2.749555 1.04,-0.6341 v -3.475107 c 0,-3.910048 -0.2423,-4.406141 -2.31638,-4.74272 -0.93024,-0.150954 -1.29536,-0.02058 -2.19597,0.784109 -1.02999,0.920281 -1.08487,1.081897 -1.18019,3.474742 -0.0833,2.091104 0.01,2.684829 0.5583,3.560628 1.06093,1.693916 2.43926,2.041497 4.09424,1.032448 z m 16.28394,2.743651 c -1.11642,-0.412349 -3.09223,-1.957239 -3.0784,-2.407027 0.003,-0.09907 0.45961,-0.497463 1.01462,-0.885312 l 1.00912,-0.705181 1.07648,0.945181 c 1.6719,1.467955 4.25424,1.165241 4.25424,-0.498701 0,-0.913635 -0.7143,-1.443354 -3.25264,-2.412173 -3.19411,-1.219098 -4.40339,-3.330131 -3.35075,-5.849424 0.55536,-1.329194 2.48451,-2.446013 4.20339,-2.43345 1.14518,0.0084 3.02214,0.643955 4.22051,1.429146 l 0.86631,0.567632 -1.07415,0.896736 -1.07414,0.896739 -0.90605,-0.645171 c -1.72963,-1.231597 -4.53808,-0.268887 -3.59942,1.233846 0.19241,0.308 1.34368,0.957443 2.55836,1.443203 2.87744,1.150688 4.28858,2.601108 4.28858,4.407988 0,1.651561 -0.71792,3.047187 -1.87536,3.645734 -1.39613,0.721952 -3.86064,0.894743 -5.2807,0.370234 z m 12.75606,-0.02784 c -0.704,-0.248928 -1.73933,-0.951037 -2.30074,-1.56024 -2.70032,-2.930195 -2.08755,-9.798039 1.04701,-11.735313 2.31872,-1.433037 5.77731,-1.020006 7.55239,0.90192 1.35248,1.464372 1.32998,1.854567 -0.14036,2.432125 -0.7215,0.283424 -1.32988,0.480861 -1.35193,0.438756 -0.66848,-1.276993 -1.28419,-1.837165 -2.21024,-2.010897 -2.19411,-0.411616 -3.39613,1.215213 -3.39613,4.596308 0,2.503987 0.49203,3.805075 1.66915,4.413792 1.22915,0.635622 2.33443,0.35937 3.48346,-0.870656 0.86806,-0.929274 0.924,-0.943296 1.85097,-0.463946 0.5257,0.271856 1.04868,0.644528 1.16218,0.828157 0.33837,0.547479 -2.15174,2.770295 -3.53296,3.15376 -1.62944,0.452368 -2.26109,0.431972 -3.8328,-0.123766 z m 60.42416,0.02861 c -2.00096,-0.899616 -2.7064,-3.380384 -1.58045,-5.55777 0.6537,-1.264074 2.83459,-2.424486 5.56695,-2.962042 1.85452,-0.364854 1.98934,-0.450259 1.98934,-1.26015 0,-1.96744 -2.87146,-2.669043 -4.50771,-1.101405 l -0.86275,0.826557 -1.04394,-0.932765 -1.04394,-0.932765 1.08916,-0.814185 c 3.0159,-2.254461 7.50076,-1.850407 9.00646,0.811417 0.24986,0.441706 0.45331,2.766452 0.55798,6.375757 l 0.16474,5.680573 -1.49843,-6.4e-4 c -1.18029,-3.2e-4 -1.53863,-0.127132 -1.68762,-0.596652 -0.18377,-0.579021 -0.22333,-0.579361 -1.38157,-0.01187 -1.7023,0.83407 -3.55929,1.019395 -4.76822,0.475865 z m 4.70858,-2.754426 c 1.22012,-0.622464 1.26726,-0.705763 1.26726,-2.24 0,-1.829642 -0.23555,-1.92976 -2.59978,-1.105069 -1.60816,0.56096 -2.20022,1.203751 -2.20022,2.388733 0,1.689888 1.36864,2.060384 3.53274,0.956336 z m 26.12608,2.742884 c -2.73063,-0.973866 -3.87415,-3.009447 -3.87415,-6.896382 0,-3.828995 1.04042,-5.741197 3.73677,-6.867795 3.75104,-1.567283 7.36294,0.936826 7.82624,5.425888 l 0.18186,1.761907 h -4.40039 -4.40038 l 0.21929,1.2 c 0.56759,3.106001 2.82938,4.073495 5.34138,2.284797 0.82314,-0.586134 0.95837,-0.596502 1.83923,-0.141001 0.52291,0.270409 1.03322,0.625091 1.13402,0.788182 0.33046,0.534714 -2.12755,2.2289 -3.73351,2.573316 -1.96419,0.421244 -2.36521,0.407888 -3.87036,-0.128912 z m 4.72457,-8.789527 c 0.2424,-0.392192 -0.2824,-1.720154 -0.93945,-2.377197 -0.58503,-0.585031 -2.43885,-0.704743 -3.35133,-0.216413 -0.51418,0.275194 -1.29261,1.849658 -1.29261,2.614506 0,0.368825 5.35494,0.348784 5.58339,-0.0209 z m -274.70339,-0.82686 v -9.76 h 1.92 1.92 v 9.76 9.760001 h -1.92 -1.92 z m 7.36,2.72 v -7.04 h 1.44 c 1.22667,0 1.44,0.09482 1.44,0.64 0,0.793706 -0.1176,0.804934 2.07288,-0.197901 2.92695,-1.340003 5.09719,-0.735568 6.13129,1.707623 0.31041,0.733401 0.43583,2.598141 0.43583,6.48 v 5.450279 h -1.6 -1.6 v -5.280001 c 0,-4.940461 -0.0433,-5.323299 -0.67333,-5.953334 -0.78377,-0.783767 -2.17073,-0.66002 -3.48667,0.311091 -0.7888,0.582099 -0.80123,0.662723 -0.88793,5.756307 l -0.0879,5.165937 h -1.5921 -1.59207 z m 35.52,0 v -7.04 h 1.6 1.6 v 7.04 7.040001 h -1.6 -1.6 z m 47.68,0 v -7.04 h 1.6 1.6 v 7.04 7.040001 h -1.6 -1.6 z m 6.4,0 v -7.04 h 1.44 c 1.22666,0 1.44,0.09482 1.44,0.64 0,0.816288 0.15056,0.804464 2.05424,-0.161341 2.58202,-1.309946 4.47472,-0.956585 5.85616,1.093325 0.69178,1.026557 0.7296,1.378698 0.7296,6.795338 v 5.712679 h -1.6 -1.6 v -5.280001 c 0,-4.940461 -0.0433,-5.323299 -0.67334,-5.953334 -0.78375,-0.783767 -2.17072,-0.66002 -3.48666,0.311091 -0.7888,0.582099 -0.80122,0.662723 -0.88794,5.756307 l -0.0879,5.165937 h -1.5921 -1.59206 z m 36.48,0 v -7.04 h 1.44 1.44 v 1.191315 1.191315 l 0.94346,-1.03294 c 0.85472,-0.935808 2.13699,-1.66969 2.91737,-1.66969 0.16455,0 0.29917,0.792 0.29917,1.76 0,1.657376 -0.046,1.76 -0.78886,1.76 -0.43389,0 -1.29789,0.446918 -1.92,0.993149 l -1.13114,0.993149 v 4.446851 4.446852 h -1.6 -1.6 z m 24,0 v -7.04 h 1.6 1.6 v 7.04 7.040001 h -1.6 -1.6 z m 31.36,0 v -7.04 h 1.6 1.6 v 7.04 7.040001 h -1.6 -1.6 z m 21.44,-2.72 v -9.76 h 1.6 1.6 v 9.76 9.760001 h -1.6 -1.6 z m 6.72,2.72 v -7.04 h 1.6 1.6 v 7.04 7.040001 h -1.6 -1.6 z m 6.4,0 v -7.04 h 1.6 c 1.38666,0 1.6,0.08533 1.6,0.64 0,0.352 0.036,0.639398 0.08,0.638659 0.044,-6.4e-4 0.78842,-0.360736 1.65424,-0.8 1.82176,-0.924237 3.01994,-1.002281 4.51267,-0.293933 1.81632,0.861898 2.07309,1.885444 2.07309,8.263636 v 5.631639 h -1.6 -1.6 v -5.390404 c 0,-4.947344 -0.0516,-5.437059 -0.6272,-5.958016 -0.77139,-0.698103 -2.42419,-0.472307 -3.66035,0.500054 l -0.83245,0.654816 v 5.096775 5.096775 h -1.6 -1.6 z m 28.16,0 v -7.04 h 1.6 1.6 v 7.04 7.040001 h -1.6 -1.6 z m 6.4,0 v -7.04 h 1.44 1.44 l 0.009,1.2 0.009,1.2 0.87139,-1.027738 c 0.77712,-0.916534 2.13955,-1.692262 2.97223,-1.692262 0.16454,0 0.29916,0.792 0.29916,1.76 0,1.657376 -0.046,1.76 -0.78886,1.76 -0.43389,0 -1.29789,0.446918 -1.92,0.993149 l -1.13114,0.993149 v 4.446851 4.446852 h -1.6 -1.6 v -7.040001 z m -215.04,-11.36 v -1.44 h 1.6 1.6 v 1.44 1.44 h -1.6 -1.6 z m 47.68,0 v -1.44 h 1.6 1.6 v 1.44 1.44 h -1.6 -1.6 z m 66.88,0 v -1.44 h 1.6 1.6 v 1.44 1.44 h -1.6 -1.6 z m 31.36,0 v -1.44 h 1.6 1.6 v 1.44 1.44 h -1.6 -1.6 z m 28.16,0 v -1.44 h 1.6 1.6 v 1.44 1.44 h -1.6 -1.6 z m 34.56,0 v -1.44 h 1.6 1.6 v 1.44 1.44 h -1.6 -1.6 z"
       id="path16"
       sodipodi:nodetypes="csssssccccccccccsscssssssssssscssssssssssssssssssscsscccccssssssssssscccccccsssssscsssssssssssssssssssscsscsssscssssssssssssscssscccccccccccccccccccssssssscssssssccccssscccccccccccccccccccssccsssccccssscccsccssscccssssssssssscsssssssscssssssssssssssssssssscccssscccccccssssscsssssccsssscccsccsssscscccccccccccsscsscccccssscccccccsssssscccssscccccccsssssssscssscsscccccccccccsssssscccsssccccccccccccsssscccsssccccccccsssssscccssscccccccccccccccccccccccccssssccccsscccccccccccccccccccccccccccccsscsssccccccsssscccsssssscsssssscccsssssssssscssscccccccccccccsssssssscssscccccccccccccssssssssscccsssscccccsssssssscssscccccccccccccsssssssssscssscccccccccccccsssssssssscccsscssssssscssssscccccccssssscsssscsssscsssssscccssssssssssscssssssssssssscccsssccssssssssssssscccsssssssssssscccccccccccssssscccssssccccccccccccccccccccccccssssscccssssccccccccccsssssccccccccccccccccccccccccccccccccccccccccccccsssssscccssscccccccccccccccccccccsssssccccccccccccccccccccccccccccccccccccccccccccccccccccccccccccc" />
    <path
       style="fill:#00784b;stroke-width:0.32;fill-opacity:1"
       d="m 106.02947,177.30317 c -0.44,-0.0783 -2.168,-0.37231 -3.84,-0.65328 -4.117078,-0.69187 -10.709362,-2.89326 -15.100162,-5.04246 -4.034237,-1.97468 -10.499834,-5.8491 -10.499834,-6.29189 0,-0.32081 8.896278,-17.59837 9.269818,-18.003 0.130992,-0.1419 1.590867,0.62388 3.244172,1.70173 8.16626,5.32389 16.568476,8.32414 23.274156,8.3107 7.06955,-0.0142 12.70262,-2.87747 14.97846,-7.6136 1.16668,-2.42789 1.44513,-7.0924 0.57965,-9.70995 -1.74507,-5.27776 -6.57429,-8.7011 -13.90626,-9.85789 -1.144,-0.18049 -5.86,-0.32926 -10.48,-0.33059 l -8.399996,-0.002 v -8.43195 -8.43195 l 9.613716,-0.23001 c 8.27912,-0.19808 9.86366,-0.316 11.41416,-0.84945 9.52002,-3.27537 12.29261,-13.563227 5.40967,-20.07283 -3.36733,-3.184679 -8.21383,-4.680912 -12.75755,-3.938567 -2.5403,0.415031 -4.07936,1.108919 -10.319996,4.652772 -2.288,1.29928 -4.175142,2.33975 -4.193651,2.312157 -1.301245,-1.940135 -10.045907,-16.000241 -10.044944,-16.150769 0.0029,-0.452586 9.530153,-5.789517 11.730761,-6.57128 5.37996,-1.911217 13.2697,-2.75858 19.90635,-2.137946 8.88948,0.831302 16.24028,3.749251 22.05843,8.75624 4.24965,3.657168 7.26792,8.333306 8.60633,13.333582 0.7502,2.802768 0.74071,9.515251 -0.0179,12.640001 -0.80259,3.30597 -3.34103,8.25498 -5.62816,10.9728 l -1.96313,2.3328 2.59282,2.43913 c 4.46772,4.20291 7.56146,9.68166 8.76484,15.52177 1.19842,5.81607 0.431,14.75527 -1.75291,20.41832 -2.60243,6.74833 -8.43618,12.85232 -15.81886,16.55164 -6.39063,3.20223 -11.04195,4.24285 -19.68,4.40295 -3.432,0.0636 -6.6,0.0516 -7.04,-0.0268 z m 91.84,-43.81264 V 90.450529 h -5.28 -5.28 v -9.760001 -9.76 h 31.68 31.68 v 9.756803 9.756807 l -14.8,0.08319 -14.8,0.0832 -0.0812,42.960002 -0.0812,42.96 h -11.51876 -11.51884 z"
       id="path20"
       sodipodi:nodetypes="csssssssssccccssssscssssssscsssssccccccccccccccccccc" />
    <path
       d="M 267.90695,140.60948 V 176.4157 H 303.734 v -35.80622 z"
       id="path2891"
       style="fill:#00784b;fill-opacity:1;fill-rule:nonzero;stroke:none;stroke-width:0.665776"
       sodipodi:nodetypes="ccccc" />
    <path
       d="m 280.18219,146.7471 h 3.32887 0.56176 3.70336 v 0.97786 c 0,2.16502 1.76681,3.93224 3.93224,3.93224 2.16569,0 3.91143,-1.76722 3.91143,-3.93224 v -0.97786 h 1.95572 v 3.91143 c 0,3.24832 -2.61858,5.88795 -5.86715,5.88795 -3.24798,0 -5.88795,-2.63963 -5.88795,-5.88795 v -2.43424 -0.0208 c -2.5714,0 -4.66042,2.08904 -4.66042,4.66042 0,2.40637 1.83962,4.39545 4.1819,4.63963 l 6.28325,0.52013 h 0.0416 c 3.28792,0.10945 5.92955,2.80256 5.92955,6.11682 0,3.3838 -2.75405,6.13762 -6.13761,6.13762 h -5.57587 -2.01814 v -0.99867 c 0,-2.16538 -1.74541,-3.91143 -3.91142,-3.91143 -2.1651,0 -3.93223,1.74605 -3.93223,3.91143 v 0.99867 h -1.95573 v -3.93224 c 0,-3.24823 2.63939,-5.86715 5.88796,-5.86715 3.24823,0 5.86715,2.61892 5.86715,5.86715 v 2.45505 c 2.57147,0 4.66042,-2.08904 4.66042,-4.66043 0,-2.48659 -1.96936,-4.51704 -4.43156,-4.63963 l -6.28325,-0.52013 c -3.18592,-0.2178 -5.70072,-2.87566 -5.70072,-6.11682 0,-3.38347 2.73302,-6.11681 6.11682,-6.11681 z"
       id="path23"
       style="fill:#ffffff;fill-opacity:1;fill-rule:nonzero;stroke:none;stroke-width:0.665776" />
    <g
       id="g178"
       transform="matrix(1.0295226,0,0,1.0295226,5.0461819,-44.669509)">
      <path
         d="m 298.56184,183.56598 v 0.24263 c -0.48983,0.0334 -0.80735,0.11495 -0.95258,0.24517 -0.14529,0.13022 -0.2179,0.42916 -0.2179,0.89654 v 4.08876 c 0,0.66976 0.0917,1.19214 0.27499,1.56655 0.34173,0.68268 0.98931,1.02396 1.94345,1.02396 1.04509,0 1.74721,-0.34963 2.10577,-1.04796 0.19957,-0.3904 0.29972,-0.99336 0.29972,-1.80808 v -3.32375 c 0,-0.69442 -0.0831,-1.13023 -0.24974,-1.30709 -0.16669,-0.17687 -0.48298,-0.28824 -0.94906,-0.3341 v -0.24263 h 2.95442 v 0.24263 c -0.4957,0.054 -0.81909,0.17354 -0.97097,0.35882 -0.15215,0.18476 -0.22782,0.61242 -0.22782,1.28237 v 3.32218 c 0,0.88127 -0.13531,1.56858 -0.406,2.06324 -0.49922,0.91004 -1.44801,1.36522 -2.84612,1.36522 -1.38173,0 -2.32211,-0.44931 -2.82165,-1.34787 -0.27036,-0.48245 -0.40567,-1.11881 -0.40567,-1.90933 v -3.99292 c 0,-0.46334 -0.0722,-0.76018 -0.21562,-0.8904 -0.14346,-0.13029 -0.45695,-0.21412 -0.94012,-0.25131 v -0.24263 h 3.6249"
         id="path27"
         style="fill:#231f20;fill-opacity:1;fill-rule:nonzero;stroke:none;stroke-width:0.521925" />
      <path
         d="m 304.12843,191.78603 c 0.52806,-0.0538 0.86698,-0.17328 1.01684,-0.35804 0.14986,-0.18502 0.22482,-0.61391 0.22482,-1.28719 v -5.62805 l -0.17458,-0.20564 c -0.18731,-0.21992 -0.34663,-0.35628 -0.47757,-0.40801 -0.131,-0.052 -0.3275,-0.0821 -0.58951,-0.0905 v -0.24263 h 2.17206 l 4.96363,6.13796 v -4.25975 c 0,-0.70081 -0.10445,-1.15645 -0.31289,-1.36849 -0.13818,-0.13661 -0.44299,-0.22579 -0.91442,-0.26709 v -0.24263 h 2.99696 v 0.24263 c -0.48519,0.05 -0.80885,0.16871 -0.97065,0.35602 -0.1616,0.18756 -0.24237,0.61672 -0.24237,1.287 v 6.73426 h -0.21666 l -5.67743,-7.02152 v 4.9759 c 0,0.69827 0.10171,1.15365 0.30604,1.36542 0.13303,0.13714 0.43072,0.23069 0.89276,0.28034 v 0.24289 h -2.99703 v -0.24289"
         id="path29"
         style="fill:#231f20;fill-opacity:1;fill-rule:nonzero;stroke:none;stroke-width:0.521925" />
      <path
         d="m 313.50122,191.78603 c 0.5137,-0.0367 0.84708,-0.11391 0.99896,-0.23114 0.15188,-0.11718 0.22835,-0.42048 0.22835,-0.91057 v -5.694 c 0,-0.46738 -0.0765,-0.76808 -0.22835,-0.90267 -0.15188,-0.13433 -0.48526,-0.21405 -0.99896,-0.23904 v -0.24263 h 3.75309 v 0.24263 c -0.51376,0.025 -0.84688,0.10471 -0.99902,0.23904 -0.15214,0.13459 -0.22808,0.43529 -0.22808,0.90267 v 5.694 c 0,0.49009 0.0759,0.79339 0.22808,0.91057 0.15214,0.11723 0.48526,0.19448 0.99902,0.23114 v 0.24289 h -3.75309 v -0.24289"
         id="path31"
         style="fill:#231f20;fill-opacity:1;fill-rule:nonzero;stroke:none;stroke-width:0.521925" />
      <path
         d="m 321.14494,183.56598 v 0.24263 c -0.32359,0.004 -0.54411,0.025 -0.66154,0.0619 -0.20486,0.0668 -0.30663,0.20186 -0.30663,0.40469 0,0.10373 0.0359,0.24902 0.10895,0.43581 0.0724,0.18704 0.20877,0.50202 0.40841,0.94572 l 1.99962,4.45372 1.81891,-4.82604 c 0.0796,-0.2123 0.14027,-0.39093 0.18202,-0.53622 0.0411,-0.14522 0.0626,-0.2635 0.0626,-0.35471 0,-0.24465 -0.10699,-0.4103 -0.32033,-0.49772 -0.12591,-0.0497 -0.33338,-0.0787 -0.62305,-0.0872 v -0.24263 h 2.6168 v 0.24263 c -0.2714,0.0365 -0.47234,0.10778 -0.60152,0.21353 -0.19637,0.1588 -0.39079,0.47835 -0.58259,0.95825 l -2.82297,7.2055 h -0.1918 l -3.15947,-7.03652 c -0.26632,-0.58619 -0.47939,-0.95082 -0.63969,-1.09461 -0.15977,-0.14372 -0.39399,-0.22554 -0.70179,-0.24615 v -0.24263 h 3.41404"
         id="path33"
         style="fill:#231f20;fill-opacity:1;fill-rule:nonzero;stroke:none;stroke-width:0.521925" />
      <path
         d="m 326.90829,191.78603 c 0.47235,-0.0489 0.77767,-0.1325 0.91794,-0.24974 0.13961,-0.11724 0.20942,-0.4146 0.20942,-0.89197 v -5.694 c 0,-0.45081 -0.0685,-0.74544 -0.20616,-0.88408 -0.13766,-0.13863 -0.44494,-0.22423 -0.9212,-0.25763 v -0.24263 h 6.79351 l 0.0568,1.82674 h -0.32816 c -0.10765,-0.56323 -0.26945,-0.9274 -0.48474,-1.09305 -0.2153,-0.16564 -0.69612,-0.24843 -1.44182,-0.24843 h -1.75301 c -0.1892,0 -0.30598,0.0303 -0.34969,0.0907 -0.0444,0.0609 -0.0666,0.17459 -0.0666,0.34154 v 2.86471 h 1.96962 c 0.5428,0 0.88857,-0.081 1.03797,-0.24315 0.1494,-0.1618 0.26945,-0.49002 0.36078,-0.98442 h 0.29946 v 2.95416 h -0.29946 c -0.0959,-0.49674 -0.2179,-0.82548 -0.3673,-0.9865 -0.14875,-0.16056 -0.49322,-0.24087 -1.03145,-0.24087 h -1.96962 v 3.16391 c 0,0.25359 0.0803,0.40371 0.24009,0.44931 0.16049,0.0461 0.64066,0.0688 1.43986,0.0688 0.86639,0 1.50575,-0.0933 1.91742,-0.2806 0.41232,-0.1873 0.78549,-0.64066 1.12083,-1.36059 h 0.34839 l -0.5689,2.14067 h -6.92399 v -0.24289"
         id="path35"
         style="fill:#231f20;fill-opacity:1;fill-rule:nonzero;stroke:none;stroke-width:0.521925" />
      <path
         d="m 334.85982,191.78603 c 0.49126,-0.0451 0.79724,-0.14066 0.91793,-0.28569 0.1207,-0.14496 0.18137,-0.48238 0.18137,-1.01246 v -5.53756 c 0,-0.44677 -0.0678,-0.73905 -0.2029,-0.87794 -0.1357,-0.13864 -0.4345,-0.22658 -0.8964,-0.26377 v -0.24263 h 3.5393 c 0.73657,0 1.35113,0.0938 1.84174,0.28112 0.93229,0.35445 1.39811,1.0064 1.39811,1.95617 0,0.63793 -0.20681,1.12743 -0.61979,1.46896 -0.41297,0.34173 -0.97469,0.56675 -1.68516,0.67511 l 2.63441,3.23678 c 0.1618,0.1967 0.3249,0.34023 0.48735,0.4304 0.16245,0.09 0.37057,0.14705 0.62501,0.17151 v 0.24289 h -2.0603 l -3.20527,-3.9389 -0.55781,0.0285 V 190.64 c 0,0.47072 0.0724,0.76939 0.21595,0.89556 0.14353,0.12559 0.45668,0.20942 0.93946,0.25046 v 0.24289 h -3.553 v -0.24289 z m 4.37177,-4.40954 c 0.67263,-0.28008 1.00927,-0.80742 1.00927,-1.58111 0,-0.74413 -0.30337,-1.25255 -0.90945,-1.52474 -0.32425,-0.14601 -0.75353,-0.2194 -1.28916,-0.2194 -0.36078,0 -0.58259,0.0262 -0.66349,0.0785 -0.0809,0.0523 -0.12135,0.17459 -0.12135,0.36646 v 3.16567 c 0.92054,-0.0328 1.57882,-0.12813 1.97418,-0.28536"
         id="path37"
         style="fill:#231f20;fill-opacity:1;fill-rule:nonzero;stroke:none;stroke-width:0.521925" />
      <path
         d="m 344.02286,189.47436 c 0.21529,0.57543 0.46843,1.03341 0.7581,1.37541 0.50561,0.59584 1.13322,0.89373 1.88284,0.89373 0.4058,0 0.75744,-0.12944 1.05298,-0.38812 0.29685,-0.25842 0.44494,-0.61952 0.44494,-1.08234 0,-0.41741 -0.15005,-0.78008 -0.44885,-1.08919 -0.19572,-0.19599 -0.60739,-0.48983 -1.2337,-0.88206 l -1.09082,-0.68248 c -0.32816,-0.20818 -0.58978,-0.41871 -0.78354,-0.63127 -0.35948,-0.40416 -0.53889,-0.84989 -0.53889,-1.33743 0,-0.64549 0.21399,-1.18294 0.64262,-1.61216 0.42798,-0.42915 0.99557,-0.64373 1.70278,-0.64373 0.29097,0 0.64131,0.0691 1.05168,0.20695 0.40905,0.13811 0.64327,0.20694 0.70199,0.20694 0.15788,0 0.26683,-0.0362 0.32685,-0.10804 0.0607,-0.0716 0.10765,-0.17406 0.14092,-0.30585 h 0.2564 l 0.28575,2.72588 h -0.30011 c -0.20811,-0.82294 -0.54345,-1.39712 -1.0047,-1.72333 -0.46125,-0.32594 -0.91729,-0.48878 -1.3681,-0.48878 -0.35099,0 -0.65632,0.10321 -0.91793,0.30963 -0.26031,0.20643 -0.39079,0.49342 -0.39079,0.8604 0,0.32979 0.0998,0.61137 0.29945,0.8448 0.19898,0.23799 0.50953,0.48624 0.93033,0.74491 l 1.12344,0.69449 c 0.70395,0.43424 1.19978,0.83201 1.48749,1.19319 0.28445,0.36541 0.42602,0.79737 0.42602,1.29561 0,0.66871 -0.25183,1.22711 -0.75614,1.67583 -0.50431,0.4486 -1.14823,0.67309 -1.93242,0.67309 -0.39406,0 -0.80573,-0.0754 -1.23501,-0.22501 -0.42993,-0.1496 -0.67589,-0.22508 -0.73787,-0.22508 -0.1494,0 -0.24987,0.0482 -0.30206,0.14353 -0.0515,0.0958 -0.0861,0.19774 -0.10243,0.30656 h -0.28576 l -0.38491,-2.72608 h 0.29945"
         id="path39"
         style="fill:#231f20;fill-opacity:1;fill-rule:nonzero;stroke:none;stroke-width:0.521925" />
      <path
         d="m 350.58606,191.78603 c 0.5141,-0.0367 0.84683,-0.11391 0.99949,-0.23114 0.15201,-0.11718 0.22834,-0.42048 0.22834,-0.91057 v -5.694 c 0,-0.46738 -0.0763,-0.76808 -0.22834,-0.90267 -0.15266,-0.13433 -0.48539,-0.21405 -0.99949,-0.23904 v -0.24263 h 3.7533 v 0.24263 c -0.51345,0.025 -0.84683,0.10471 -0.99884,0.23904 -0.15201,0.13459 -0.22834,0.43529 -0.22834,0.90267 v 5.694 c 0,0.49009 0.0763,0.79339 0.22834,0.91057 0.15201,0.11723 0.48539,0.19448 0.99884,0.23114 v 0.24289 h -3.7533 v -0.24289"
         id="path41"
         style="fill:#231f20;fill-opacity:1;fill-rule:nonzero;stroke:none;stroke-width:0.521925" />
      <path
         d="m 354.88281,183.56598 h 7.23583 l 0.0568,2.16925 h -0.29945 c -0.15071,-0.68248 -0.34251,-1.12612 -0.57477,-1.33234 -0.23226,-0.20564 -0.72091,-0.30885 -1.46596,-0.30885 h -0.69938 v 6.55028 c 0,0.49009 0.0757,0.79339 0.22835,0.91057 0.15135,0.11723 0.48473,0.19448 0.99883,0.23114 v 0.24289 h -3.72459 v -0.24289 c 0.54802,-0.0412 0.88989,-0.13022 1.02493,-0.26677 0.1344,-0.13661 0.20225,-0.48069 0.20225,-1.03138 v -6.39384 h -0.69938 c -0.70917,0 -1.19129,0.10216 -1.44769,0.30604 -0.25639,0.20368 -0.44951,0.64888 -0.57868,1.33515 h -0.31446 l 0.0574,-2.16925"
         id="path43"
         style="fill:#231f20;fill-opacity:1;fill-rule:nonzero;stroke:none;stroke-width:0.521925" />
      <path
         d="m 362.64644,191.78603 c 0.47169,-0.0489 0.77767,-0.1325 0.91794,-0.24974 0.13961,-0.11724 0.20942,-0.4146 0.20942,-0.89197 v -5.694 c 0,-0.45081 -0.0685,-0.74544 -0.20681,-0.88408 -0.13766,-0.13863 -0.44495,-0.22423 -0.92055,-0.25763 v -0.24263 h 6.79285 l 0.0574,1.82674 h -0.32816 c -0.1083,-0.56323 -0.26944,-0.9274 -0.48473,-1.09305 -0.2153,-0.16564 -0.69612,-0.24843 -1.44182,-0.24843 h -1.75302 c -0.18919,0 -0.30598,0.0303 -0.34969,0.0907 -0.0444,0.0609 -0.0665,0.17459 -0.0665,0.34154 v 2.86471 h 1.96961 c 0.5428,0 0.88858,-0.081 1.03798,-0.24315 0.14875,-0.1618 0.26879,-0.49002 0.36013,-0.98442 h 0.3001 v 2.95416 h -0.3001 c -0.0952,-0.49674 -0.21725,-0.82548 -0.36665,-0.9865 -0.14875,-0.16056 -0.49322,-0.24087 -1.03146,-0.24087 h -1.96961 v 3.16391 c 0,0.25359 0.0802,0.40371 0.24008,0.44931 0.1605,0.0461 0.64067,0.0688 1.43986,0.0688 0.86575,0 1.5051,-0.0933 1.91742,-0.2806 0.41233,-0.1873 0.7855,-0.64066 1.12019,-1.36059 h 0.34903 l -0.56889,2.14067 h -6.92399 z m 5.63679,-10.32967 c -0.0666,0.079 -0.16441,0.15984 -0.29358,0.24263 l -1.96962,1.23879 h -0.51931 l 1.88219,-1.88637 c 0.0672,-0.0662 0.15005,-0.13479 0.25052,-0.20512 0.0998,-0.0709 0.20616,-0.10601 0.31903,-0.10601 0.1083,0 0.20681,0.0385 0.29684,0.11515 0.0894,0.0767 0.1344,0.17739 0.1344,0.302 0,0.12056 -0.0339,0.21992 -0.10047,0.29893"
         id="path45"
         style="fill:#231f20;fill-opacity:1;fill-rule:nonzero;stroke:none;stroke-width:0.521925" />
      <path
         d="m 373.71125,191.78603 c 0.46777,-0.0489 0.77244,-0.1325 0.91467,-0.24974 0.14157,-0.11724 0.21268,-0.4146 0.21268,-0.89197 v -5.694 c 0,-0.46334 -0.0685,-0.76123 -0.20681,-0.89373 -0.13766,-0.13205 -0.44494,-0.21458 -0.92054,-0.24798 v -0.24263 h 3.45057 c 1.16259,0 2.14642,0.19168 2.95083,0.5747 1.4503,0.68679 2.17578,1.91514 2.17578,3.68479 0,0.63714 -0.13048,1.24316 -0.39079,1.81787 -0.26031,0.57464 -0.65306,1.05937 -1.17825,1.45512 -0.33403,0.24974 -0.67981,0.43914 -1.03798,0.56779 -0.65436,0.24185 -1.45878,0.36267 -2.41325,0.36267 h -3.55691 z m 2.57961,-0.3142 c 0.10243,0.0667 0.31381,0.10015 0.63544,0.10015 1.0021,0 1.82609,-0.19827 2.47327,-0.59532 0.99297,-0.61033 1.4901,-1.6532 1.4901,-3.12927 0,-1.31649 -0.40906,-2.3071 -1.22718,-2.97197 -0.70133,-0.56831 -1.63036,-0.85276 -2.78642,-0.85276 -0.28837,0 -0.48278,0.0314 -0.58521,0.0943 -0.10243,0.0627 -0.15332,0.20055 -0.15332,0.41356 v 6.52739 c 0,0.20922 0.0509,0.34688 0.15332,0.41388"
         id="path47"
         style="fill:#231f20;fill-opacity:1;fill-rule:nonzero;stroke:none;stroke-width:0.521925" />
      <path
         d="m 382.88864,191.78603 c 0.47169,-0.0489 0.77767,-0.1325 0.91728,-0.24974 0.14027,-0.11724 0.21008,-0.4146 0.21008,-0.89197 v -5.694 c 0,-0.45081 -0.0685,-0.74544 -0.20681,-0.88408 -0.13766,-0.13863 -0.44429,-0.22423 -0.92055,-0.25763 v -0.24263 h 6.7935 l 0.0568,1.82674 h -0.32816 c -0.10764,-0.56323 -0.26944,-0.9274 -0.48473,-1.09305 -0.21595,-0.16564 -0.69612,-0.24843 -1.44182,-0.24843 h -1.75302 c -0.18919,0 -0.30597,0.0303 -0.35034,0.0907 -0.0437,0.0609 -0.0659,0.17459 -0.0659,0.34154 v 2.86471 h 1.96896 c 0.5428,0 0.88923,-0.081 1.03863,-0.24315 0.14875,-0.1618 0.26879,-0.49002 0.36013,-0.98442 h 0.29945 v 2.95416 h -0.29945 c -0.0953,-0.49674 -0.21791,-0.82548 -0.36665,-0.9865 -0.14941,-0.16056 -0.49322,-0.24087 -1.03211,-0.24087 h -1.96896 v 3.16391 c 0,0.25359 0.0796,0.40371 0.24008,0.44931 0.1605,0.0461 0.64001,0.0688 1.43986,0.0688 0.86575,0 1.5051,-0.0933 1.91743,-0.2806 0.41166,-0.1873 0.78549,-0.64066 1.12018,-1.36059 h 0.34838 l -0.5689,2.14067 h -6.92333 v -0.24289"
         id="path49"
         style="fill:#231f20;fill-opacity:1;fill-rule:nonzero;stroke:none;stroke-width:0.521925" />
      <path
         d="m 296.30673,206.95679 c 0.40241,1.06373 0.87488,1.91135 1.41697,2.54311 0.94442,1.10195 2.11751,1.65267 3.5194,1.65267 0.75842,0 1.41442,-0.23981 1.96844,-0.7207 0.5535,-0.4809 0.83025,-1.15114 0.83025,-2.01125 0,-0.77549 -0.2808,-1.45007 -0.84173,-2.02347 -0.36672,-0.36418 -1.13715,-0.91083 -2.31096,-1.63966 l -2.04105,-1.26684 c -0.6147,-0.38766 -1.10119,-0.77936 -1.45976,-1.17511 -0.66389,-0.75183 -0.99596,-1.58209 -0.99596,-2.48984 0,-1.20265 0.39888,-2.20292 1.19651,-3.00211 0.79796,-0.79868 1.85531,-1.19802 3.17285,-1.19802 0.54182,0 1.19423,0.1282 1.95748,0.38505 0.76299,0.25692 1.19879,0.38538 1.30735,0.38538 0.29437,0 0.49799,-0.0668 0.61033,-0.20133 0.11215,-0.13381 0.19931,-0.32366 0.26122,-0.5691 h 0.48526 l 0.51377,5.05178 h -0.57085 c -0.38812,-1.51809 -1.01201,-2.57825 -1.8698,-3.17944 -0.85837,-0.60119 -1.70695,-0.90214 -2.54543,-0.90214 -0.65292,0 -1.22195,0.19213 -1.70695,0.57568 -0.48526,0.38355 -0.72809,0.91643 -0.72809,1.59839 0,0.61294 0.18705,1.1361 0.56166,1.56989 0.37363,0.44187 0.95336,0.90312 1.73932,1.38356 l 2.09996,1.29052 c 1.31447,0.80657 2.2388,1.54516 2.77299,2.21714 0.52623,0.67944 0.78947,1.48323 0.78947,2.40985 0,1.24365 -0.46993,2.28265 -1.40978,3.11676 -0.94064,0.83437 -2.14172,1.2513 -3.60428,1.2513 -0.735,0 -1.50308,-0.14042 -2.30385,-0.42101 -0.80121,-0.28058 -1.25894,-0.421 -1.37488,-0.421 -0.27877,0 -0.4666,0.0897 -0.56348,0.2686 -0.0965,0.1789 -0.16056,0.37029 -0.19109,0.57341 h -0.51403 l -0.7136,-5.05207 h 0.54234"
         id="path51"
         style="fill:#231f20;fill-opacity:1;fill-rule:nonzero;stroke:none;stroke-width:0.521925" />
      <path
         d="m 308.3724,211.2382 c 0.92563,-0.10041 1.5049,-0.27268 1.73605,-0.51632 0.2316,-0.24363 0.3476,-0.88049 0.3476,-1.90981 v -10.2754 c 0,-0.85295 -0.12924,-1.4075 -0.38792,-1.66337 -0.25861,-0.25614 -0.82386,-0.41487 -1.69573,-0.4773 v -0.42818 h 6.59341 v 0.42818 c -0.86725,0.0624 -1.43151,0.22116 -1.69247,0.4773 -0.26096,0.25587 -0.39119,0.81042 -0.39119,1.66337 v 4.62393 h 7.16414 v -4.62393 c 0,-0.85295 -0.12722,-1.4075 -0.38166,-1.66337 -0.25509,-0.25614 -0.82262,-0.41487 -1.70187,-0.4773 v -0.42818 h 6.59361 v 0.42818 c -0.87227,0.0624 -1.43725,0.22116 -1.69626,0.4773 -0.25835,0.25587 -0.38752,0.81042 -0.38752,1.66337 v 10.56083 c 0,0.86418 0.12917,1.41771 0.38752,1.66057 0.25901,0.24313 0.82399,0.40342 1.69626,0.48013 v 0.42814 h -6.59361 v -0.42814 c 0.9338,-0.0928 1.51463,-0.26274 1.74232,-0.51071 0.22769,-0.24746 0.34121,-0.8861 0.34121,-1.91542 v -4.59542 h -7.16414 v 4.88085 c 0,0.86418 0.13023,1.41949 0.39119,1.66618 0.26096,0.2472 0.82522,0.4047 1.69247,0.47452 v 0.42814 h -6.59341 v -0.42814"
         id="path53"
         style="fill:#231f20;fill-opacity:1;fill-rule:nonzero;stroke:none;stroke-width:0.521925" />
      <path
         d="m 325.71178,211.2382 c 0.87227,-0.0923 1.43725,-0.24847 1.69626,-0.46815 0.25835,-0.21993 0.38753,-0.77728 0.38753,-1.67255 v -10.56083 c 0,-0.84506 -0.12722,-1.39784 -0.38231,-1.65776 -0.25444,-0.25972 -0.82138,-0.42048 -1.70148,-0.48291 v -0.42818 h 12.61623 l 0.11417,3.39663 h -0.59956 c -0.20094,-1.04235 -0.50235,-1.71642 -0.90489,-2.02351 -0.40188,-0.3063 -1.29959,-0.45975 -2.69117,-0.45975 h -3.2529 c -0.35034,0 -0.56694,0.056 -0.64914,0.16741 -0.0822,0.11215 -0.12266,0.32216 -0.12266,0.63003 v 5.28214 h 3.65348 c 1.00796,0 1.65058,-0.15032 1.92786,-0.45153 0.27727,-0.30174 0.49974,-0.91213 0.66937,-1.83189 h 0.57085 v 5.50904 h -0.57085 c -0.17681,-0.92432 -0.40384,-1.53622 -0.68046,-1.83489 -0.27793,-0.29893 -0.91663,-0.44853 -1.91677,-0.44853 h -3.65348 v 5.86171 c 0,0.47045 0.14875,0.74798 0.44625,0.83259 0.2975,0.0849 1.18868,0.12716 2.67356,0.12716 1.60818,0 2.79491,-0.17202 3.56018,-0.51734 0.76527,-0.34531 1.46139,-1.18096 2.08835,-2.50844 h 0.6511 l -1.06212,3.96769 h -12.8674 v -0.42814"
         id="path55"
         style="fill:#231f20;fill-opacity:1;fill-rule:nonzero;stroke:none;stroke-width:0.521925" />
      <path
         d="m 340.3609,211.2382 c 0.91794,-0.0846 1.4901,-0.26274 1.71583,-0.5339 0.22573,-0.27065 0.3386,-0.90114 0.3386,-1.89223 v -10.2754 c 0,-0.83742 -0.12591,-1.38584 -0.37905,-1.64628 -0.25313,-0.2592 -0.81159,-0.42432 -1.67538,-0.49439 v -0.42818 h 6.5867 c 1.3707,0 2.51306,0.17407 3.42643,0.52115 1.73475,0.65651 2.60245,1.86523 2.60245,3.62594 0,1.18177 -0.38492,2.089 -1.15541,2.72229 -0.76984,0.63329 -1.8163,1.05025 -3.14003,1.25106 l 4.88978,6.01206 c 0.30076,0.37181 0.60152,0.6422 0.90228,0.8127 0.30141,0.17049 0.68698,0.2788 1.15802,0.32518 v 0.42814 h -3.82245 l -5.94342,-7.30694 -1.02362,0.0568 v 4.6749 c 0,0.88228 0.13374,1.44116 0.40058,1.67689 0.26618,0.2365 0.84812,0.39323 1.74453,0.47019 v 0.42814 h -6.62584 z m 8.13877,-8.19151 c 1.25327,-0.51964 1.87958,-1.49694 1.87958,-2.93178 0,-1.38049 -0.56303,-2.32263 -1.68777,-2.82675 -0.60087,-0.27087 -1.39876,-0.40697 -2.39303,-0.40697 -0.67067,0 -1.08104,0.0487 -1.23174,0.14503 -0.15005,0.0968 -0.22508,0.32288 -0.22508,0.67811 v 5.85561 c 1.70539,-0.0591 2.92473,-0.23011 3.65804,-0.51325"
         id="path57"
         style="fill:#231f20;fill-opacity:1;fill-rule:nonzero;stroke:none;stroke-width:0.521925" />
      <path
         d="m 356.29527,211.2382 c 0.95773,-0.054 1.57817,-0.2026 1.86001,-0.44572 0.28184,-0.24236 0.42341,-0.80735 0.42341,-1.69498 v -10.56083 c 0,-0.87644 -0.14157,-1.44038 -0.42341,-1.6924 -0.28184,-0.25209 -0.90228,-0.40143 -1.86001,-0.44827 v -0.42818 h 6.66302 c 1.90307,0 3.41404,0.30507 4.53226,0.91468 1.11823,0.60954 1.67734,1.659 1.67734,3.14831 0,1.11934 -0.3921,1.96792 -1.17563,2.54647 -0.44234,0.33156 -1.10583,0.60602 -1.9905,0.82184 1.09278,0.26325 2.02703,0.7016 2.80209,1.31603 0.77571,0.61496 1.16324,1.47481 1.16324,2.58007 0,1.85528 -0.85857,3.13028 -2.57635,3.82601 -0.90489,0.36366 -2.01985,0.54511 -3.34228,0.54511 h -7.75319 z m 8.94253,-8.63293 c 1.00274,-0.4651 1.50445,-1.29868 1.50445,-2.50106 0,-1.41898 -0.57869,-2.37665 -1.7354,-2.87287 -0.64067,-0.27114 -1.61145,-0.40723 -2.91495,-0.40723 -0.49322,0 -0.7979,0.0428 -0.91337,0.1282 -0.11613,0.0849 -0.17354,0.31726 -0.17354,0.69696 v 5.36865 l 2.25536,-0.0288 c 0.79333,-0.0147 1.45357,-0.14294 1.97745,-0.38381 z m 0.80963,7.49733 c 0.82399,-0.47171 1.23696,-1.37642 1.23696,-2.71436 0,-1.33004 -0.48278,-2.23884 -1.44768,-2.72606 -0.96491,-0.48702 -2.19405,-0.73089 -3.68806,-0.73089 -0.36534,0 -0.5976,0 -0.69481,0 -0.0972,0 -0.24726,-0.004 -0.44885,-0.0115 v 5.91572 c 0,0.4103 0.11613,0.67509 0.34969,0.79487 0.23356,0.11977 0.7744,0.17966 1.62253,0.17966 1.22196,0 2.24493,-0.23548 3.07022,-0.70746"
         id="path59"
         style="fill:#231f20;fill-opacity:1;fill-rule:nonzero;stroke:none;stroke-width:0.521925" />
      <path
         d="m 371.99216,211.2382 c 0.91793,-0.0846 1.49009,-0.26274 1.71582,-0.5339 0.22574,-0.27065 0.33925,-0.90114 0.33925,-1.89223 v -10.2754 c 0,-0.83742 -0.12656,-1.38584 -0.3797,-1.64628 -0.25313,-0.2592 -0.81159,-0.42432 -1.67537,-0.49439 v -0.42818 h 6.58669 c 1.3707,0 2.51306,0.17407 3.42709,0.52115 1.73474,0.65651 2.60179,1.86523 2.60179,3.62594 0,1.18177 -0.38492,2.089 -1.15476,2.72229 -0.77049,0.63329 -1.81695,1.05025 -3.14068,1.25106 l 4.88978,6.01206 c 0.30011,0.37181 0.60152,0.6422 0.90228,0.8127 0.30141,0.17049 0.68698,0.2788 1.15802,0.32518 v 0.42814 h -3.82245 l -5.94341,-7.30694 -1.02298,0.0568 v 4.6749 c 0,0.88228 0.13309,1.44116 0.39993,1.67689 0.26683,0.2365 0.84813,0.39323 1.74518,0.47019 v 0.42814 h -6.62648 z m 8.13941,-8.19151 c 1.25197,-0.51964 1.87893,-1.49694 1.87893,-2.93178 0,-1.38049 -0.56302,-2.32263 -1.68712,-2.82675 -0.60152,-0.27087 -1.39941,-0.40697 -2.39368,-0.40697 -0.67067,0 -1.08103,0.0487 -1.23109,0.14503 -0.1507,0.0968 -0.22508,0.32288 -0.22508,0.67811 v 5.85561 c 1.70474,-0.0591 2.92474,-0.23011 3.65804,-0.51325"
         id="path61"
         style="fill:#231f20;fill-opacity:1;fill-rule:nonzero;stroke:none;stroke-width:0.521925" />
      <path
         d="m 389.89679,197.72423 c 1.46073,-1.39934 3.25681,-2.09866 5.39017,-2.09866 2.1412,0 3.94119,0.70362 5.40193,2.10988 1.58404,1.52272 2.37606,3.55203 2.37606,6.08747 0,2.57423 -0.81877,4.62268 -2.45696,6.14513 -1.46857,1.36062 -3.24181,2.04081 -5.32103,2.04081 -2.22535,0 -4.07231,-0.75384 -5.54088,-2.26099 -1.4914,-1.53775 -2.23645,-3.51331 -2.23645,-5.92495 0,-2.53544 0.79529,-4.56808 2.38716,-6.09869 z m 1.77063,11.63678 c 0.98382,1.19421 2.19208,1.79156 3.62542,1.79156 1.40202,0 2.60049,-0.58156 3.59606,-1.74493 0.99557,-1.16388 1.49335,-3.02528 1.49335,-5.58472 0,-2.59024 -0.50365,-4.46108 -1.51097,-5.61297 -1.00666,-1.15241 -2.19991,-1.72809 -3.57844,-1.72809 -1.42551,0 -2.63181,0.59734 -3.61955,1.79183 -0.98709,1.19416 -1.48096,3.04412 -1.48096,5.54923 0,2.49752 0.49126,4.34388 1.47509,5.53809"
         id="path63"
         style="fill:#231f20;fill-opacity:1;fill-rule:nonzero;stroke:none;stroke-width:0.521925" />
      <path
         d="m 407.04658,197.72423 c 1.46009,-1.39934 3.25746,-2.09866 5.39018,-2.09866 2.14054,0 3.94118,0.70362 5.40192,2.10988 1.58404,1.52272 2.37606,3.55203 2.37606,6.08747 0,2.57423 -0.81942,4.62268 -2.45761,6.14513 -1.46791,1.36062 -3.24115,2.04081 -5.32037,2.04081 -2.22536,0 -4.07297,-0.75384 -5.54088,-2.26099 -1.4914,-1.53775 -2.2371,-3.51331 -2.2371,-5.92495 0,-2.53544 0.79593,-4.56808 2.3878,-6.09869 z m 1.77063,11.63678 c 0.98383,1.19421 2.19209,1.79156 3.62542,1.79156 1.40202,0 2.60049,-0.58156 3.59606,-1.74493 0.99557,-1.16388 1.49336,-3.02528 1.49336,-5.58472 0,-2.59024 -0.50366,-4.46108 -1.51097,-5.61297 -1.00666,-1.15241 -2.19991,-1.72809 -3.57845,-1.72809 -1.42551,0 -2.6318,0.59734 -3.61955,1.79183 -0.98774,1.19416 -1.48096,3.04412 -1.48096,5.54923 0,2.49752 0.49126,4.34388 1.47509,5.53809"
         id="path65"
         style="fill:#231f20;fill-opacity:1;fill-rule:nonzero;stroke:none;stroke-width:0.521925" />
      <path
         d="m 421.32383,211.2382 c 0.96622,-0.077 1.56513,-0.24949 1.79738,-0.51606 0.23161,-0.26657 0.34773,-0.90216 0.34773,-1.90752 V 198.5293 c 0,-0.85785 -0.12982,-1.41213 -0.38818,-1.66363 -0.25965,-0.25105 -0.84486,-0.40776 -1.75693,-0.46967 v -0.42818 h 6.77394 v 0.42818 c -0.92707,0.0461 -1.52663,0.20003 -1.79673,0.46203 -0.27075,0.26194 -0.4058,0.81675 -0.4058,1.66338 v 4.85201 c 1.46596,-1.23958 2.66443,-2.29439 3.59476,-3.16417 1.66755,-1.57876 2.50132,-2.59234 2.50132,-3.03904 0,-0.31577 -0.14157,-0.52349 -0.42471,-0.6239 -0.28315,-0.0999 -0.68438,-0.15031 -1.20369,-0.15031 v -0.42818 h 6.23569 v 0.42818 c -0.76201,0.0752 -1.36222,0.22169 -1.80064,0.43933 -0.43906,0.21764 -1.04711,0.69442 -1.82412,1.4302 l -4.64057,4.28494 5.66811,6.10462 c 1.02884,1.09456 1.72953,1.77754 2.1014,2.04921 0.37187,0.27218 0.91793,0.45006 1.63754,0.5339 v 0.42814 h -7.27042 v -0.42814 c 0.65763,-0.0232 1.10192,-0.0754 1.33417,-0.15673 0.23291,-0.0808 0.34904,-0.2421 0.34904,-0.48217 0,-0.13124 -0.0757,-0.33308 -0.22638,-0.60398 -0.15136,-0.27116 -0.38949,-0.58462 -0.71504,-0.94115 l -4.57924,-4.93329 -0.73722,0.68091 v 4.29061 c 0,0.88177 0.13309,1.44064 0.39993,1.67638 0.26683,0.23573 0.84813,0.39246 1.74518,0.46942 v 0.42814 h -6.71652 v -0.42814"
         id="path67"
         style="fill:#231f20;fill-opacity:1;fill-rule:nonzero;stroke:none;stroke-width:0.521925" />
      <path
         d="m 438.33075,211.2382 c 0.87227,-0.0923 1.43725,-0.24847 1.69561,-0.46815 0.259,-0.21993 0.38818,-0.77728 0.38818,-1.67255 v -10.56083 c 0,-0.84506 -0.12787,-1.39784 -0.38231,-1.65776 -0.25509,-0.25972 -0.82203,-0.42048 -1.70148,-0.48291 v -0.42818 h 12.61558 l 0.11417,3.39663 h -0.59891 c -0.20094,-1.04235 -0.50301,-1.71642 -0.90489,-2.02351 -0.40253,-0.3063 -1.29959,-0.45975 -2.69182,-0.45975 h -3.25225 c -0.35099,0 -0.56759,0.056 -0.64914,0.16741 -0.0822,0.11215 -0.12265,0.32216 -0.12265,0.63003 v 5.28214 h 3.65282 c 1.00796,0 1.65124,-0.15032 1.92851,-0.45153 0.27662,-0.30174 0.49974,-0.91213 0.66937,-1.83189 h 0.57085 v 5.50904 h -0.57085 c -0.17746,-0.92432 -0.40384,-1.53622 -0.68111,-1.83489 -0.27728,-0.29893 -0.91598,-0.44853 -1.91677,-0.44853 h -3.65282 v 5.86171 c 0,0.47045 0.14809,0.74798 0.44624,0.83259 0.2975,0.0849 1.18868,0.12716 2.67291,0.12716 1.60818,0 2.79491,-0.17202 3.56018,-0.51734 0.76527,-0.34531 1.46204,-1.18096 2.089,-2.50844 h 0.65045 l -1.06212,3.96769 h -12.86675 v -0.42814"
         id="path69"
         style="fill:#231f20;fill-opacity:1;fill-rule:nonzero;stroke:none;stroke-width:0.521925" />
    </g>
  </g>
</svg>
