<?xml version="1.0" encoding="UTF-8" standalone="no"?>
<svg
   xmlns:dc="http://purl.org/dc/elements/1.1/"
   xmlns:cc="http://creativecommons.org/ns#"
   xmlns:rdf="http://www.w3.org/1999/02/22-rdf-syntax-ns#"
   xmlns:svg="http://www.w3.org/2000/svg"
   xmlns="http://www.w3.org/2000/svg"
   xmlns:sodipodi="http://sodipodi.sourceforge.net/DTD/sodipodi-0.dtd"
   xmlns:inkscape="http://www.inkscape.org/namespaces/inkscape"
   version="1.1"
   id="svg2"
   width="324.9281"
   height="107.74325"
   viewBox="0 0 324.9281 107.74325"
   sodipodi:docname="3it_footer.svg"
   inkscape:version="1.0.1 (3bc2e813f5, 2020-09-07)">
  <metadata
     id="metadata8">
    <rdf:RDF>
      <cc:Work
         rdf:about="">
        <dc:format>image/svg+xml</dc:format>
        <dc:type
           rdf:resource="http://purl.org/dc/dcmitype/StillImage" />
        <dc:title />
      </cc:Work>
    </rdf:RDF>
  </metadata>
  <defs
     id="defs6">
    <clipPath
       id="clipPath19">
      <path
         d="M 0,0 H 3039.31 V 479.281 H 0 Z"
         id="path21" />
    </clipPath>
  </defs>
  <sodipodi:namedview
     pagecolor="#ffffff"
     bordercolor="#666666"
     borderopacity="1"
     objecttolerance="10"
     gridtolerance="10"
     guidetolerance="10"
     inkscape:pageopacity="0"
     inkscape:pageshadow="2"
     inkscape:window-width="1920"
     inkscape:window-height="1057"
     id="namedview4"
     showgrid="false"
     inkscape:pagecheckerboard="true"
     inkscape:zoom="5.1673188"
     inkscape:cx="176.71017"
     inkscape:cy="52.800312"
     inkscape:window-x="-8"
     inkscape:window-y="-8"
     inkscape:window-maximized="1"
     inkscape:current-layer="g10"
     inkscape:document-rotation="0" />
  <g
     inkscape:groupmode="layer"
     inkscape:label="Image"
     id="g10"
     transform="translate(-76.589474,-69.688684)">
    <path
       style="fill:#000000;stroke-width:0.32"
       d="m 164.68542,176.9122 c -8.38611,-2.9861 -11.37257,-13.52447 -5.82249,-20.54586 2.67117,-3.37928 6.47232,-4.98803 11.15485,-4.72104 4.84957,0.27651 8.61347,2.75773 10.72535,7.07031 3.22708,6.58987 0.6392,14.3716 -5.84019,17.56139 -1.89654,0.93366 -2.45079,1.05156 -5.33494,1.13482 -2.4989,0.0721 -3.59059,-0.0396 -4.88258,-0.49962 z m -6.81595,-70.30167 V 70.610528 h 11.2 11.2 v 36.000002 36 h -11.2 -11.2 z"
       id="path16"
       sodipodi:nodetypes="cssssscccccccccc" />
    <path
       style="fill:#00784b;fill-opacity:1;stroke-width:0.32"
       d="m 106.02947,177.23152 c -0.44,-0.0783 -2.168,-0.37231 -3.84,-0.65328 -4.117078,-0.69187 -10.709362,-2.89326 -15.100162,-5.04246 -4.034237,-1.97468 -10.499834,-5.8491 -10.499834,-6.29189 0,-0.32081 8.896278,-17.59837 9.269818,-18.003 0.130992,-0.1419 1.590867,0.62388 3.244172,1.70173 8.16626,5.32389 16.568476,8.32414 23.274156,8.3107 7.06955,-0.0142 12.70262,-2.87747 14.97846,-7.6136 1.16668,-2.42789 1.44513,-7.0924 0.57965,-9.70995 -1.74507,-5.27776 -6.57429,-8.7011 -13.90626,-9.85789 -1.144,-0.18049 -5.86,-0.32926 -10.48,-0.33059 l -8.399996,-0.002 v -8.43195 -8.43195 l 9.613716,-0.23001 c 8.27912,-0.19808 9.86366,-0.316 11.41416,-0.84945 9.52002,-3.27537 12.29261,-13.563224 5.40967,-20.072827 -3.36733,-3.184679 -8.21383,-4.680912 -12.75755,-3.938567 -2.5403,0.415031 -4.07936,1.108919 -10.319996,4.652772 -2.288,1.29928 -4.175142,2.33975 -4.193651,2.312157 C 93.014578,92.80933 84.269916,78.749224 84.270879,78.598696 c 0.0029,-0.452586 9.530153,-5.789517 11.730761,-6.57128 5.37996,-1.911217 13.2697,-2.75858 19.90635,-2.137946 8.88948,0.831302 16.24028,3.749251 22.05843,8.75624 4.24965,3.657168 7.26792,8.333306 8.60633,13.333582 0.7502,2.802768 0.74071,9.515248 -0.0179,12.639998 -0.80259,3.30597 -3.34103,8.25498 -5.62816,10.9728 l -1.96313,2.3328 2.59282,2.43913 c 4.46772,4.20291 7.56146,9.68166 8.76484,15.52177 1.19842,5.81607 0.431,14.75527 -1.75291,20.41832 -2.60243,6.74833 -8.43618,12.85232 -15.81886,16.55164 -6.39063,3.20223 -11.04195,4.24285 -19.68,4.40295 -3.432,0.0636 -6.6,0.0516 -7.04,-0.0268 z m 91.84,-43.81264 V 90.378882 h -5.28 -5.28 v -9.760001 -9.76 h 31.68 31.68 v 9.756803 9.756807 l -14.8,0.08319 -14.8,0.0832 -0.0812,42.959999 -0.0812,42.96 h -11.51876 -11.51884 z"
       id="path20"
       sodipodi:nodetypes="csssssssssccccssssscssssssscsssssccccccccccccccccccc" />
    <g
       id="g862"
       transform="matrix(3.0036269,0,0,3.0036269,-510.78604,-352.58725)">
      <path
         d="M 267.90695,140.60948 V 176.4157 H 303.734 v -35.80622 z"
         id="path2891"
         style="fill:#00784b;fill-opacity:1;fill-rule:nonzero;stroke:none;stroke-width:0.665776"
         sodipodi:nodetypes="ccccc" />
      <path
         d="m 280.18219,146.7471 h 3.32887 0.56176 3.70336 v 0.97786 c 0,2.16502 1.76681,3.93224 3.93224,3.93224 2.16569,0 3.91143,-1.76722 3.91143,-3.93224 v -0.97786 h 1.95572 v 3.91143 c 0,3.24832 -2.61858,5.88795 -5.86715,5.88795 -3.24798,0 -5.88795,-2.63963 -5.88795,-5.88795 v -2.43424 -0.0208 c -2.5714,0 -4.66042,2.08904 -4.66042,4.66042 0,2.40637 1.83962,4.39545 4.1819,4.63963 l 6.28325,0.52013 h 0.0416 c 3.28792,0.10945 5.92955,2.80256 5.92955,6.11682 0,3.3838 -2.75405,6.13762 -6.13761,6.13762 h -5.57587 -2.01814 v -0.99867 c 0,-2.16538 -1.74541,-3.91143 -3.91142,-3.91143 -2.1651,0 -3.93223,1.74605 -3.93223,3.91143 v 0.99867 h -1.95573 v -3.93224 c 0,-3.24823 2.63939,-5.86715 5.88796,-5.86715 3.24823,0 5.86715,2.61892 5.86715,5.86715 v 2.45505 c 2.57147,0 4.66042,-2.08904 4.66042,-4.66043 0,-2.48659 -1.96936,-4.51704 -4.43156,-4.63963 l -6.28325,-0.52013 c -3.18592,-0.2178 -5.70072,-2.87566 -5.70072,-6.11682 0,-3.38347 2.73302,-6.11681 6.11682,-6.11681 z"
         id="path23"
         style="fill:#ffffff;fill-opacity:1;fill-rule:nonzero;stroke:none;stroke-width:0.665776" />
    </g>
  </g>
</svg>
