<?xml version="1.0" encoding="UTF-8" standalone="no"?>
<svg
   xmlns:dc="http://purl.org/dc/elements/1.1/"
   xmlns:cc="http://creativecommons.org/ns#"
   xmlns:rdf="http://www.w3.org/1999/02/22-rdf-syntax-ns#"
   xmlns:svg="http://www.w3.org/2000/svg"
   xmlns="http://www.w3.org/2000/svg"
   xmlns:sodipodi="http://sodipodi.sourceforge.net/DTD/sodipodi-0.dtd"
   xmlns:inkscape="http://www.inkscape.org/namespaces/inkscape"
   version="1.0"
   width="379.91376"
   height="59.910126"
   id="svg2"
   xml:space="preserve"
   sodipodi:docname="udes.svg"
   inkscape:version="1.0.1 (3bc2e813f5, 2020-09-07)"><metadata
     id="metadata32"><rdf:RDF><cc:Work
         rdf:about=""><dc:format>image/svg+xml</dc:format><dc:type
           rdf:resource="http://purl.org/dc/dcmitype/StillImage" /><dc:title></dc:title></cc:Work></rdf:RDF></metadata><sodipodi:namedview
     pagecolor="#ffffff"
     bordercolor="#666666"
     borderopacity="1"
     objecttolerance="10"
     gridtolerance="10"
     guidetolerance="10"
     inkscape:pageopacity="0"
     inkscape:pageshadow="2"
     inkscape:window-width="1920"
     inkscape:window-height="1057"
     id="namedview30"
     showgrid="false"
     inkscape:zoom="5.9422572"
     inkscape:cx="140.20217"
     inkscape:cy="51.562551"
     inkscape:window-x="-8"
     inkscape:window-y="-8"
     inkscape:window-maximized="1"
     inkscape:current-layer="svg2"
     inkscape:pagecheckerboard="true" /><defs
     id="defs5"><clipPath
       id="clipPath19"><path
         d="M 0,0 H 3039.31 V 479.281 H 0 Z"
         id="path21" /></clipPath></defs><path
     d="m 0,5.441375 v 53.78125 H 53.8125 V 5.441375 Z"
     id="path2891"
     style="fill:#00784b;fill-opacity:1;fill-rule:nonzero;stroke:none"
     sodipodi:nodetypes="ccccc" /><path
     d="m 18.4375,14.660125 h 5 0.84375 5.5625 v 1.46875 c 0,3.251875 2.65375,5.90625 5.90625,5.90625 3.252875,0 5.875,-2.654375 5.875,-5.90625 v -1.46875 h 2.9375 v 5.875 c 0,4.879 -3.933125,8.84375 -8.8125,8.84375 -4.8785,0 -8.84375,-3.96475 -8.84375,-8.84375 v -3.65625 -0.03125 c -3.86225,0 -7,3.13775 -7,7 0,3.614375 2.763125,6.602 6.28125,6.96875 l 9.4375,0.78125 h 0.0625 c 4.938497,0.16439 8.90625,4.209448 8.90625,9.1875 0,5.0825 -4.136625,9.21875 -9.21875,9.21875 H 27 23.96875 v -1.5 c 0,-3.252425 -2.621625,-5.875 -5.875,-5.875 -3.252,0 -5.90625,2.622575 -5.90625,5.875 v 1.5 H 9.25 v -5.90625 c 0,-4.878875 3.964375,-8.8125 8.84375,-8.8125 4.878875,0 8.8125,3.933625 8.8125,8.8125 v 3.6875 c 3.862375,0 7,-3.13775 7,-7 0,-3.734875 -2.958,-6.784625 -6.65625,-6.96875 l -9.4375,-0.78125 C 13.02725,32.708 9.25,28.715875 9.25,23.847625 c 0,-5.082 4.105,-9.1875 9.1875,-9.1875 z"
     id="path23"
     style="fill:#ffffff;fill-opacity:1;fill-rule:nonzero;stroke:none" /><path
     d="m 85.431125,5.414 v 0.464875 c -0.9385,0.064 -1.546875,0.22025 -1.825125,0.46975 -0.278375,0.2495 -0.4175,0.82225 -0.4175,1.71775 v 7.834 c 0,1.28325 0.17575,2.284125 0.526875,3.0015 0.65475,1.308 1.8955,1.961875 3.723625,1.961875 2.002375,0 3.347625,-0.669875 4.034625,-2.007875 0.382375,-0.748 0.57425,-1.90325 0.57425,-3.46425 v -6.36825 c 0,-1.3305 -0.15925,-2.1655 -0.4785,-2.504375 C 91.25,6.180125 90.644,5.96675 89.751,5.878875 V 5.414 h 5.660625 v 0.464875 c -0.94975,0.1035 -1.569375,0.3325 -1.860375,0.6875 -0.2915,0.354 -0.4365,1.173375 -0.4365,2.457 v 6.36525 c 0,1.6885 -0.25925,3.005375 -0.777875,3.953125 -0.9565,1.743625 -2.774375,2.61575 -5.453125,2.61575 -2.647375,0 -4.449125,-0.860875 -5.40625,-2.5825 -0.518,-0.924375 -0.77725,-2.143625 -0.77725,-3.65825 V 8.066375 c 0,-0.88775 -0.13825,-1.4565 -0.413125,-1.706 -0.274875,-0.249625 -0.8755,-0.41025 -1.80125,-0.4815 V 5.414 h 6.94525"
     id="path27"
     style="fill:#231f20;fill-opacity:1;fill-rule:nonzero;stroke:none" /><path
     d="m 96.096625,21.1635 c 1.01175,-0.103 1.661125,-0.332 1.94825,-0.686 0.287125,-0.3545 0.43075,-1.17625 0.43075,-2.46625 V 7.228 l -0.3345,-0.394 C 97.78225,6.412625 97.477,6.151375 97.226125,6.05225 96.975125,5.952625 96.598625,5.895 96.096625,5.878875 V 5.414 h 4.161625 l 9.51025,11.76025 V 9.012625 c 0,-1.34275 -0.20012,-2.21575 -0.5995,-2.622 -0.26475,-0.26175 -0.84875,-0.432625 -1.752,-0.51175 V 5.414 h 5.74212 v 0.464875 c -0.92962,0.09575 -1.54974,0.32325 -1.85975,0.682125 -0.30962,0.359375 -0.46437,1.181625 -0.46437,2.465875 v 12.90275 h -0.41512 L 99.542,8.4765 v 9.53375 c 0,1.337875 0.194875,2.210375 0.58638,2.616125 0.25487,0.26275 0.82525,0.442 1.7105,0.537125 v 0.465375 H 96.096625 V 21.1635"
     id="path29"
     style="fill:#231f20;fill-opacity:1;fill-rule:nonzero;stroke:none" /><path
     d="m 114.05475,21.1635 c 0.98425,-0.07025 1.623,-0.21825 1.914,-0.442875 0.291,-0.2245 0.4375,-0.805625 0.4375,-1.744625 V 8.066375 c 0,-0.8955 -0.1465,-1.471625 -0.4375,-1.7295 -0.291,-0.257375 -0.92975,-0.410125 -1.914,-0.458 V 5.414 h 7.19087 v 0.464875 c -0.98437,0.047875 -1.62262,0.200625 -1.91412,0.458 -0.2915,0.257875 -0.437,0.834 -0.437,1.7295 V 18.976 c 0,0.939 0.1455,1.520125 0.437,1.744625 0.2915,0.224625 0.92975,0.372625 1.91412,0.442875 v 0.465375 h -7.19087 V 21.1635"
     id="path31"
     style="fill:#231f20;fill-opacity:1;fill-rule:nonzero;stroke:none" /><path
     d="m 128.7,5.414 v 0.464875 c -0.62,0.00775 -1.0425,0.047875 -1.2675,0.118625 -0.3925,0.128 -0.5875,0.38675 -0.5875,0.775375 0,0.19875 0.0687,0.477125 0.20875,0.835 0.13875,0.358375 0.4,0.961875 0.7825,1.812 l 3.83125,8.53325 3.485,-9.246625 c 0.1525,-0.40675 0.26875,-0.749 0.34875,-1.027375 0.0788,-0.27825 0.12,-0.504875 0.12,-0.679625 0,-0.46875 -0.205,-0.786125 -0.61375,-0.953625 -0.24125,-0.09525 -0.63875,-0.150875 -1.19375,-0.167 V 5.414 h 5.01375 v 0.464875 c -0.52,0.069875 -0.905,0.2065 -1.1525,0.409125 -0.37625,0.30425 -0.74875,0.9165 -1.11625,1.836 L 131.15,21.929625 h -0.3675 L 124.729,8.44775 C 124.21875,7.324625 123.8105,6.626 123.50338,6.3505 123.19725,6.075125 122.7485,5.918375 122.15875,5.878875 V 5.414 H 128.7"
     id="path33"
     style="fill:#231f20;fill-opacity:1;fill-rule:nonzero;stroke:none" /><path
     d="m 139.7425,21.1635 c 0.905,-0.09375 1.49,-0.253875 1.75875,-0.4785 0.2675,-0.224625 0.40125,-0.794375 0.40125,-1.709 V 8.066375 c 0,-0.86375 -0.13125,-1.42825 -0.395,-1.693875 -0.26375,-0.265625 -0.8525,-0.429625 -1.765,-0.493625 V 5.414 h 13.01625 l 0.10875,3.5 h -0.62875 C 152.0325,7.834875 151.7225,7.137125 151.31,6.81975 c -0.4125,-0.317375 -1.33375,-0.476 -2.7625,-0.476 h -3.35875 c -0.3625,0 -0.58625,0.058125 -0.67,0.17375 -0.085,0.11675 -0.1275,0.3345 -0.1275,0.654375 v 5.48875 h 3.77375 c 1.04,0 1.7025,-0.15525 1.98875,-0.465875 0.28625,-0.31 0.51625,-0.938875 0.69125,-1.886125 h 0.57375 V 15.96875 H 150.845 c -0.18375,-0.95175 -0.4175,-1.581625 -0.70375,-1.890125 -0.285,-0.307625 -0.945,-0.4615 -1.97625,-0.4615 h -3.77375 v 6.062 c 0,0.485875 0.15375,0.7735 0.46,0.860875 0.3075,0.08838 1.2275,0.131875 2.75875,0.131875 1.66,0 2.885,-0.17875 3.67375,-0.537625 0.79,-0.358875 1.505,-1.2275 2.1475,-2.606875 h 0.6675 l -1.09,4.1015 H 139.7425 V 21.1635"
     id="path35"
     style="fill:#231f20;fill-opacity:1;fill-rule:nonzero;stroke:none" /><path
     d="m 154.9775,21.1635 c 0.94125,-0.08637 1.5275,-0.2695 1.75875,-0.547375 0.23125,-0.27775 0.3475,-0.92425 0.3475,-1.939875 V 8.066375 c 0,-0.856 -0.13,-1.416 -0.38875,-1.682125 -0.26,-0.265625 -0.8325,-0.434125 -1.7175,-0.505375 V 5.414 h 6.78125 c 1.41125,0 2.58875,0.17975 3.52875,0.538625 1.78625,0.679125 2.67875,1.92825 2.67875,3.748 0,1.22225 -0.39625,2.160125 -1.1875,2.8145 -0.79125,0.65475 -1.8675,1.085875 -3.22875,1.2935 l 5.0475,6.201625 c 0.31,0.376875 0.6225,0.651875 0.93375,0.824625 0.31125,0.172375 0.71,0.28175 1.1975,0.328625 v 0.465375 h -3.9475 L 160.64,14.082 l -1.06875,0.05462 v 4.831125 c 0,0.901875 0.13875,1.474125 0.41375,1.715875 0.275,0.240625 0.875,0.40125 1.8,0.479875 v 0.465375 h -6.8075 v -0.465375 z m 8.37625,-8.448625 c 1.28875,-0.536625 1.93375,-1.547 1.93375,-3.029375 0,-1.42575 -0.58125,-2.399875 -1.7425,-2.921375 -0.62125,-0.27975 -1.44375,-0.420375 -2.47,-0.420375 -0.69125,0 -1.11625,0.05025 -1.27125,0.150375 -0.155,0.100125 -0.2325,0.3345 -0.2325,0.702125 v 6.065375 c 1.76375,-0.06288 3.025,-0.2455 3.7825,-0.54675"
     id="path37"
     style="fill:#231f20;fill-opacity:1;fill-rule:nonzero;stroke:none" /><path
     d="m 172.53375,16.734375 c 0.4125,1.1025 0.8975,1.98 1.4525,2.63525 0.96875,1.141625 2.17125,1.712375 3.6075,1.712375 0.7775,0 1.45125,-0.248 2.0175,-0.743625 0.56875,-0.495125 0.8525,-1.187 0.8525,-2.07375 0,-0.79975 -0.2875,-1.494625 -0.86,-2.086875 -0.375,-0.3755 -1.16375,-0.9385 -2.36375,-1.69 l -2.09,-1.307625 c -0.62875,-0.398875 -1.13,-0.80225 -1.50125,-1.2095 -0.68875,-0.774375 -1.0325,-1.628375 -1.0325,-2.5625 0,-1.23675 0.41,-2.2665 1.23125,-3.088875 0.82,-0.82225 1.9075,-1.233375 3.2625,-1.233375 0.5575,0 1.22875,0.132375 2.015,0.3965 0.78375,0.264625 1.2325,0.3965 1.345,0.3965 0.3025,0 0.51125,-0.069375 0.62625,-0.207 0.11625,-0.13725 0.20625,-0.3335 0.27,-0.586 h 0.49125 l 0.5475,5.22275 h -0.575 c -0.39875,-1.57675 -1.04125,-2.676875 -1.925,-3.301875 -0.88375,-0.6245 -1.7575,-0.9365 -2.62125,-0.9365 -0.6725,0 -1.2575,0.19775 -1.75875,0.59325 -0.49875,0.3955 -0.74875,0.945375 -0.74875,1.6485 0,0.631875 0.19125,1.171375 0.57375,1.618625 0.38125,0.456 0.97625,0.931625 1.7825,1.42725 l 2.1525,1.330625 c 1.34875,0.832 2.29875,1.594125 2.85,2.286125 0.545,0.700125 0.81625,1.52775 0.81625,2.482375 0,1.28125 -0.4825,2.351125 -1.44875,3.210875 -0.96625,0.8595 -2.2,1.289625 -3.7025,1.289625 -0.755,0 -1.54375,-0.1445 -2.36625,-0.431125 -0.82375,-0.286625 -1.295,-0.43125 -1.41375,-0.43125 -0.28625,0 -0.47875,0.09238 -0.57875,0.275 -0.0987,0.1835 -0.165,0.378875 -0.19625,0.587375 h -0.5475 L 171.96,16.734375 h 0.57375"
     id="path39"
     style="fill:#231f20;fill-opacity:1;fill-rule:nonzero;stroke:none" /><path
     d="m 185.10875,21.1635 c 0.985,-0.07025 1.6225,-0.21825 1.915,-0.442875 0.29125,-0.2245 0.4375,-0.805625 0.4375,-1.744625 V 8.066375 c 0,-0.8955 -0.14625,-1.471625 -0.4375,-1.7295 -0.2925,-0.257375 -0.93,-0.410125 -1.915,-0.458 V 5.414 H 192.3 v 0.464875 c -0.98375,0.047875 -1.6225,0.200625 -1.91375,0.458 -0.29125,0.257875 -0.4375,0.834 -0.4375,1.7295 V 18.976 c 0,0.939 0.14625,1.520125 0.4375,1.744625 0.29125,0.224625 0.93,0.372625 1.91375,0.442875 v 0.465375 h -7.19125 V 21.1635"
     id="path41"
     style="fill:#231f20;fill-opacity:1;fill-rule:nonzero;stroke:none" /><path
     d="M 193.34125,5.414 H 207.205 l 0.10875,4.15625 H 206.74 C 206.45125,8.262625 206.08375,7.412625 205.63875,7.0175 205.19375,6.6235 204.2575,6.42575 202.83,6.42575 h -1.34 V 18.976 c 0,0.939 0.145,1.520125 0.4375,1.744625 0.29,0.224625 0.92875,0.372625 1.91375,0.442875 v 0.465375 H 196.705 V 21.1635 c 1.05,-0.079 1.705,-0.2495 1.96375,-0.511125 0.2575,-0.26175 0.3875,-0.921 0.3875,-1.976125 V 6.42575 h -1.34 c -1.35875,0 -2.2825,0.19575 -2.77375,0.586375 -0.49125,0.39025 -0.86125,1.24325 -1.10875,2.558125 h -0.6025 l 0.11,-4.15625"
     id="path43"
     style="fill:#231f20;fill-opacity:1;fill-rule:nonzero;stroke:none" /><path
     d="m 208.21625,21.1635 c 0.90375,-0.09375 1.49,-0.253875 1.75875,-0.4785 0.2675,-0.224625 0.40125,-0.794375 0.40125,-1.709 V 8.066375 c 0,-0.86375 -0.13125,-1.42825 -0.39625,-1.693875 -0.26375,-0.265625 -0.8525,-0.429625 -1.76375,-0.493625 V 5.414 h 13.015 l 0.11,3.5 h -0.62875 c -0.2075,-1.079125 -0.51625,-1.776875 -0.92875,-2.09425 -0.4125,-0.317375 -1.33375,-0.476 -2.7625,-0.476 h -3.35875 c -0.3625,0 -0.58625,0.058125 -0.67,0.17375 -0.085,0.11675 -0.1275,0.3345 -0.1275,0.654375 v 5.48875 h 3.77375 c 1.04,0 1.7025,-0.15525 1.98875,-0.465875 0.285,-0.31 0.515,-0.938875 0.69,-1.886125 h 0.575 v 5.660125 h -0.575 c -0.1825,-0.95175 -0.41625,-1.581625 -0.7025,-1.890125 -0.285,-0.307625 -0.945,-0.4615 -1.97625,-0.4615 H 212.865 v 6.062 c 0,0.485875 0.15375,0.7735 0.46,0.860875 0.3075,0.08838 1.2275,0.131875 2.75875,0.131875 1.65875,0 2.88375,-0.17875 3.67375,-0.537625 0.79,-0.358875 1.505,-1.2275 2.14625,-2.606875 h 0.66875 l -1.09,4.1015 h -13.26625 z m 10.8,-19.7915 c -0.1275,0.151375 -0.315,0.30625 -0.5625,0.464875 l -3.77375,2.3735 h -0.995 l 3.60625,-3.61425 c 0.12875,-0.126875 0.2875,-0.25825 0.48,-0.393 C 217.9625,0.067375 218.16625,0 218.3825,0 c 0.2075,0 0.39625,0.07375 0.56875,0.220625 0.17125,0.147 0.2575,0.339875 0.2575,0.578625 0,0.231 -0.065,0.421375 -0.1925,0.57275"
     id="path45"
     style="fill:#231f20;fill-opacity:1;fill-rule:nonzero;stroke:none" /><path
     d="m 229.41625,21.1635 c 0.89625,-0.09375 1.48,-0.253875 1.7525,-0.4785 0.27125,-0.224625 0.4075,-0.794375 0.4075,-1.709 V 8.066375 c 0,-0.88775 -0.13125,-1.4585 -0.39625,-1.712375 -0.26375,-0.253 -0.8525,-0.411125 -1.76375,-0.475125 V 5.414 h 6.61125 c 2.2275,0 4.1125,0.36725 5.65375,1.101125 2.77875,1.315875 4.16875,3.669375 4.16875,7.06 0,1.22075 -0.25,2.381875 -0.74875,3.483 -0.49875,1.101 -1.25125,2.02975 -2.2575,2.788 -0.64,0.4785 -1.3025,0.841375 -1.98875,1.087875 -1.25375,0.463375 -2.795,0.694875 -4.62375,0.694875 h -6.815 z m 4.9425,-0.602 c 0.19625,0.127875 0.60125,0.191875 1.2175,0.191875 1.92,0 3.49875,-0.379875 4.73875,-1.140625 1.9025,-1.169375 2.855,-3.1675 2.855,-5.995625 0,-2.522375 -0.78375,-4.420375 -2.35125,-5.69425 C 239.475,6.834 237.695,6.289 235.48,6.289 c -0.5525,0 -0.925,0.060125 -1.12125,0.18075 C 234.1625,6.589875 234.065,6.854 234.065,7.262125 V 19.7685 c 0,0.400875 0.0975,0.664625 0.29375,0.793"
     id="path47"
     style="fill:#231f20;fill-opacity:1;fill-rule:nonzero;stroke:none" /><path
     d="m 247,21.1635 c 0.90375,-0.09375 1.49,-0.253875 1.7575,-0.4785 0.26875,-0.224625 0.4025,-0.794375 0.4025,-1.709 V 8.066375 c 0,-0.86375 -0.13125,-1.42825 -0.39625,-1.693875 C 248.5,6.106875 247.9125,5.942875 247,5.878875 V 5.414 h 13.01625 l 0.10875,3.5 h -0.62875 C 259.29,7.834875 258.98,7.137125 258.5675,6.81975 c -0.41375,-0.317375 -1.33375,-0.476 -2.7625,-0.476 h -3.35875 c -0.3625,0 -0.58625,0.058125 -0.67125,0.17375 -0.0838,0.11675 -0.12625,0.3345 -0.12625,0.654375 v 5.48875 h 3.7725 c 1.04,0 1.70375,-0.15525 1.99,-0.465875 0.285,-0.31 0.515,-0.938875 0.69,-1.886125 h 0.57375 v 5.660125 h -0.57375 c -0.1825,-0.95175 -0.4175,-1.581625 -0.7025,-1.890125 -0.28625,-0.307625 -0.945,-0.4615 -1.9775,-0.4615 h -3.7725 v 6.062 c 0,0.485875 0.1525,0.7735 0.46,0.860875 0.3075,0.08838 1.22625,0.131875 2.75875,0.131875 1.65875,0 2.88375,-0.17875 3.67375,-0.537625 0.78875,-0.358875 1.505,-1.2275 2.14625,-2.606875 h 0.6675 l -1.09,4.1015 H 247 V 21.1635"
     id="path49"
     style="fill:#231f20;fill-opacity:1;fill-rule:nonzero;stroke:none" /><path
     d="m 81.110375,50.230437 c 0.771,2.038088 1.67625,3.662113 2.714875,4.872563 1.8095,2.111325 4.057125,3.1665 6.743125,3.1665 1.453125,0 2.71,-0.459475 3.7715,-1.380863 1.0605,-0.921387 1.59075,-2.205562 1.59075,-3.853512 0,-1.485838 -0.538,-2.778325 -1.61275,-3.87695 -0.702625,-0.697762 -2.17875,-1.745125 -4.42775,-3.14155 L 85.9795,43.589375 c -1.17775,-0.74275 -2.109875,-1.49325 -2.796875,-2.2515 -1.272,-1.4405 -1.90825,-3.03125 -1.90825,-4.7705 0,-2.30425 0.76425,-4.22075 2.2925,-5.752 C 85.09575,29.285125 87.121625,28.52 89.646,28.52 c 1.038125,0 2.288125,0.245625 3.7505,0.73775 1.461875,0.49225 2.296875,0.738375 2.504875,0.738375 0.564,0 0.954125,-0.128 1.169375,-0.38575 C 97.285625,29.354 97.452625,28.99025 97.57125,28.52 H 98.501 l 0.984375,9.679125 h -1.09375 c -0.743625,-2.908625 -1.939,-4.939875 -3.5825,-6.09175 -1.644625,-1.151875 -3.2705,-1.7285 -4.877,-1.7285 -1.251,0 -2.34125,0.368125 -3.2705,1.103 -0.92975,0.734875 -1.395,1.755875 -1.395,3.0625 0,1.174375 0.358375,2.17675 1.076125,3.007875 0.715875,0.846625 1.826625,1.730375 3.3325,2.650875 l 4.0235,2.472625 c 2.5185,1.545375 4.2895,2.9605 5.313,4.248 1.00825,1.3018 1.51262,2.84185 1.51262,4.617237 0,2.382813 -0.90037,4.373538 -2.70112,5.971676 -1.80225,1.598634 -4.1035,2.397462 -6.90575,2.397462 -1.40825,0 -2.879875,-0.269042 -4.414125,-0.80664 -1.535125,-0.537597 -2.412125,-0.806635 -2.63425,-0.806635 -0.534125,0 -0.894,0.171875 -1.079625,0.514642 -0.185,0.342773 -0.307625,0.709473 -0.366125,1.098633 H 81.4385 l -1.36725,-9.679688 h 1.039125"
     id="path51"
     style="fill:#231f20;fill-opacity:1;fill-rule:nonzero;stroke:none" /><path
     d="m 104.228,58.433562 c 1.7735,-0.192387 2.88338,-0.522462 3.32625,-0.989262 0.44375,-0.466787 0.666,-1.687012 0.666,-3.659175 v -19.6875 c 0,-1.63425 -0.24762,-2.69675 -0.74325,-3.187 -0.4955,-0.49075 -1.5785,-0.794875 -3.249,-0.9145 V 29.17575 h 12.63288 v 0.820375 c -1.66163,0.119625 -2.74275,0.42375 -3.24275,0.9145 -0.5,0.49025 -0.7495,1.55275 -0.7495,3.187 V 42.957 H 126.595 v -8.859375 c 0,-1.63425 -0.24375,-2.69675 -0.73125,-3.187 -0.48875,-0.49075 -1.57612,-0.794875 -3.26075,-0.9145 V 29.17575 h 12.63325 v 0.820375 c -1.67125,0.119625 -2.75375,0.42375 -3.25,0.9145 -0.495,0.49025 -0.7425,1.55275 -0.7425,3.187 V 54.332 c 0,1.655763 0.2475,2.716312 0.7425,3.181637 0.49625,0.465826 1.57875,0.772951 3.25,0.919925 v 0.820313 H 122.603 v -0.820313 c 1.78913,-0.177737 2.902,-0.503412 3.33825,-0.978512 0.43625,-0.474125 0.65375,-1.697762 0.65375,-3.669925 v -8.80475 H 112.86863 V 54.332 c 0,1.655763 0.2495,2.719725 0.7495,3.192388 0.5,0.473624 1.58112,0.775387 3.24275,0.909174 v 0.820313 H 104.228 v -0.820313"
     id="path53"
     style="fill:#231f20;fill-opacity:1;fill-rule:nonzero;stroke:none" /><path
     d="m 137.45,58.433562 c 1.67125,-0.176762 2.75375,-0.476075 3.25,-0.896974 0.495,-0.421388 0.7425,-1.489251 0.7425,-3.204588 V 34.097625 c 0,-1.619125 -0.24375,-2.67825 -0.7325,-3.17625 -0.4875,-0.497625 -1.57375,-0.805625 -3.26,-0.92525 V 29.17575 h 24.1725 l 0.21875,6.507875 h -1.14875 c -0.385,-1.997125 -0.9625,-3.288625 -1.73375,-3.877 -0.77,-0.586875 -2.49,-0.880875 -5.15625,-0.880875 H 147.57 c -0.67125,0 -1.08625,0.107375 -1.24375,0.32075 -0.1575,0.214875 -0.235,0.61725 -0.235,1.207125 v 10.1205 h 7 c 1.93125,0 3.1625,-0.288 3.69375,-0.865125 0.53125,-0.578125 0.9575,-1.747625 1.2825,-3.509875 h 1.09375 v 10.555237 h -1.09375 c -0.33875,-1.770987 -0.77375,-2.943362 -1.30375,-3.515612 -0.5325,-0.57275 -1.75625,-0.859375 -3.6725,-0.859375 h -7 v 11.23095 c 0,0.901362 0.285,1.4331 0.855,1.595212 0.57,0.1626 2.2775,0.24365 5.1225,0.24365 3.08125,0 5.355,-0.329587 6.82125,-0.991212 1.46625,-0.661625 2.8,-2.2627 4.00125,-4.80615 h 1.2475 l -2.035,7.60205 H 137.45 v -0.820313"
     id="path55"
     style="fill:#231f20;fill-opacity:1;fill-rule:nonzero;stroke:none" /><path
     d="m 165.5175,58.433562 c 1.75875,-0.162112 2.855,-0.503412 3.2875,-1.02295 0.4325,-0.51855 0.64875,-1.726562 0.64875,-3.625487 v -19.6875 c 0,-1.6045 -0.24125,-2.65525 -0.72625,-3.15425 -0.485,-0.496625 -1.555,-0.813 -3.21,-0.94725 V 29.17575 h 12.62 c 2.62625,0 4.815,0.3335 6.565,0.9985 3.32375,1.257875 4.98625,3.57375 4.98625,6.94725 0,2.26425 -0.7375,4.0025 -2.21375,5.215875 -1.475,1.213375 -3.48,2.01225 -6.01625,2.397 l 9.36875,11.519013 c 0.57625,0.7124 1.1525,1.230462 1.72875,1.557124 0.5775,0.326663 1.31625,0.534188 2.21875,0.62305 v 0.820313 h -7.32375 l -11.3875,-14 -1.96125,0.108875 v 8.957038 c 0,1.690437 0.25625,2.761237 0.7675,3.212899 0.51,0.453125 1.625,0.753413 3.3425,0.900875 v 0.820313 h -12.695 z M 181.11125,42.73875 c 2.40125,-0.995625 3.60125,-2.868125 3.60125,-5.61725 0,-2.645 -1.07875,-4.450125 -3.23375,-5.416 -1.15125,-0.519 -2.68,-0.77975 -4.585,-0.77975 -1.285,0 -2.07125,0.09325 -2.36,0.277875 -0.2875,0.1855 -0.43125,0.618625 -0.43125,1.29925 v 11.21925 c 3.2675,-0.11325 5.60375,-0.440875 7.00875,-0.983375"
     id="path57"
     style="fill:#231f20;fill-opacity:1;fill-rule:nonzero;stroke:none" /><path
     d="m 196.0475,58.433562 c 1.835,-0.103512 3.02375,-0.388187 3.56375,-0.854 0.54,-0.464362 0.81125,-1.546875 0.81125,-3.247562 V 34.097625 c 0,-1.67925 -0.27125,-2.75975 -0.81125,-3.242625 -0.54,-0.483 -1.72875,-0.769125 -3.56375,-0.858875 V 29.17575 h 12.76625 c 3.64625,0 6.54125,0.5845 8.68375,1.7525 2.1425,1.167875 3.21375,3.178625 3.21375,6.032125 0,2.144625 -0.75125,3.7705 -2.2525,4.879 -0.8475,0.63525 -2.11875,1.161125 -3.81375,1.574625 2.09375,0.504375 3.88375,1.34425 5.36875,2.5215 1.48625,1.17825 2.22875,2.8257 2.22875,4.943375 0,3.554687 -1.645,5.997562 -4.93625,7.330562 -1.73375,0.696782 -3.87,1.044438 -6.40375,1.044438 h -14.855 z M 213.18125,41.893 c 1.92125,-0.891125 2.8825,-2.48825 2.8825,-4.792 0,-2.71875 -1.10875,-4.553625 -3.325,-5.504375 -1.2275,-0.5195 -3.0875,-0.78025 -5.585,-0.78025 -0.945,0 -1.52875,0.082 -1.75,0.245625 -0.2225,0.162625 -0.3325,0.607875 -0.3325,1.335375 v 10.28625 l 4.32125,-0.05525 c 1.52,-0.02825 2.785,-0.273875 3.78875,-0.735375 z m 1.55125,14.364775 c 1.57875,-0.9038 2.37,-2.6372 2.37,-5.200675 0,-2.548337 -0.925,-4.2896 -2.77375,-5.2231 -1.84875,-0.933125 -4.20375,-1.400375 -7.06625,-1.400375 -0.7,0 -1.145,0 -1.33125,0 -0.18625,0 -0.47375,-0.0069 -0.86,-0.022 v 11.334437 c 0,0.786138 0.2225,1.293463 0.67,1.522951 0.4475,0.229487 1.48375,0.344237 3.10875,0.344237 2.34125,0 4.30125,-0.451175 5.8825,-1.355475"
     id="path59"
     style="fill:#231f20;fill-opacity:1;fill-rule:nonzero;stroke:none" /><path
     d="m 226.1225,58.433562 c 1.75875,-0.162112 2.855,-0.503412 3.2875,-1.02295 0.4325,-0.51855 0.65,-1.726562 0.65,-3.625487 v -19.6875 c 0,-1.6045 -0.2425,-2.65525 -0.7275,-3.15425 -0.485,-0.496625 -1.555,-0.813 -3.21,-0.94725 V 29.17575 h 12.62 c 2.62625,0 4.815,0.3335 6.56625,0.9985 3.32375,1.257875 4.985,3.57375 4.985,6.94725 0,2.26425 -0.7375,4.0025 -2.2125,5.215875 -1.47625,1.213375 -3.48125,2.01225 -6.0175,2.397 l 9.36875,11.519013 c 0.575,0.7124 1.1525,1.230462 1.72875,1.557124 0.5775,0.326663 1.31625,0.534188 2.21875,0.62305 v 0.820313 h -7.32375 l -11.3875,-14 -1.96,0.108875 v 8.957038 c 0,1.690437 0.255,2.761237 0.76625,3.212899 0.51125,0.453125 1.625,0.753413 3.34375,0.900875 v 0.820313 H 226.1225 Z m 15.595,-15.694812 c 2.39875,-0.995625 3.6,-2.868125 3.6,-5.61725 0,-2.645 -1.07875,-4.450125 -3.2325,-5.416 -1.1525,-0.519 -2.68125,-0.77975 -4.58625,-0.77975 -1.285,0 -2.07125,0.09325 -2.35875,0.277875 -0.28875,0.1855 -0.43125,0.618625 -0.43125,1.29925 v 11.21925 c 3.26625,-0.11325 5.60375,-0.440875 7.00875,-0.983375"
     id="path61"
     style="fill:#231f20;fill-opacity:1;fill-rule:nonzero;stroke:none" /><path
     d="m 260.4275,32.541 c 2.79875,-2.681125 6.24,-4.021 10.3275,-4.021 4.1025,0 7.55125,1.348125 10.35,4.0425 3.035,2.9175 4.5525,6.805625 4.5525,11.6635 0,4.932175 -1.56875,8.856975 -4.7075,11.773975 -2.81375,2.606925 -6.21125,3.91015 -10.195,3.91015 -4.26375,0 -7.8025,-1.444338 -10.61625,-4.332025 -2.8575,-2.9463 -4.285,-6.73145 -4.285,-11.3521 0,-4.857875 1.52375,-8.752375 4.57375,-11.685 z m 3.3925,22.295888 c 1.885,2.288087 4.2,3.432612 6.94625,3.432612 2.68625,0 4.9825,-1.114262 6.89,-3.343263 1.9075,-2.229974 2.86125,-5.796387 2.86125,-10.700237 0,-4.962875 -0.965,-8.547375 -2.895,-10.754375 -1.92875,-2.208 -4.215,-3.311 -6.85625,-3.311 -2.73125,0 -5.0425,1.1445 -6.935,3.433125 -1.89125,2.288 -2.8375,5.8325 -2.8375,10.63225 0,4.7852 0.94125,8.3228 2.82625,10.610888"
     id="path63"
     style="fill:#231f20;fill-opacity:1;fill-rule:nonzero;stroke:none" /><path
     d="m 293.28625,32.541 c 2.7975,-2.681125 6.24125,-4.021 10.3275,-4.021 4.10125,0 7.55125,1.348125 10.35,4.0425 3.035,2.9175 4.5525,6.805625 4.5525,11.6635 0,4.932175 -1.57,8.856975 -4.70875,11.773975 -2.8125,2.606925 -6.21,3.91015 -10.19375,3.91015 -4.26375,0 -7.80375,-1.444338 -10.61625,-4.332025 -2.8575,-2.9463 -4.28625,-6.73145 -4.28625,-11.3521 0,-4.857875 1.525,-8.752375 4.575,-11.685 z m 3.3925,22.295888 c 1.885,2.288087 4.2,3.432612 6.94625,3.432612 2.68625,0 4.9825,-1.114262 6.89,-3.343263 1.9075,-2.229974 2.86125,-5.796387 2.86125,-10.700237 0,-4.962875 -0.965,-8.547375 -2.895,-10.754375 -1.92875,-2.208 -4.215,-3.311 -6.85625,-3.311 -2.73125,0 -5.0425,1.1445 -6.935,3.433125 -1.8925,2.288 -2.8375,5.8325 -2.8375,10.63225 0,4.7852 0.94125,8.3228 2.82625,10.610888"
     id="path65"
     style="fill:#231f20;fill-opacity:1;fill-rule:nonzero;stroke:none" /><path
     d="m 320.64125,58.433562 c 1.85125,-0.147462 2.99875,-0.478025 3.44375,-0.988774 0.44375,-0.510738 0.66625,-1.728513 0.66625,-3.654775 V 34.0835 c 0,-1.643625 -0.24875,-2.705625 -0.74375,-3.1875 -0.4975,-0.481 -1.61875,-0.78125 -3.36625,-0.899875 V 29.17575 H 333.62 v 0.820375 c -1.77625,0.08838 -2.925,0.38325 -3.4425,0.88525 -0.51875,0.501875 -0.7775,1.564875 -0.7775,3.187 v 9.296375 c 2.80875,-2.375 5.105,-4.396 6.8875,-6.0625 3.195,-3.024875 4.7925,-4.966875 4.7925,-5.82275 0,-0.605 -0.27125,-1.003 -0.81375,-1.195375 -0.5425,-0.191375 -1.31125,-0.288 -2.30625,-0.288 V 29.17575 h 11.9475 v 0.820375 c -1.46,0.144 -2.61,0.42475 -3.45,0.84175 -0.84125,0.417 -2.00625,1.3305 -3.495,2.74025 l -8.89125,8.209875 10.86,11.69635 c 1.97125,2.097163 3.31375,3.40575 4.02625,3.926262 0.7125,0.521488 1.75875,0.862301 3.1375,1.02295 v 0.820313 h -13.93 v -0.820313 c 1.26,-0.04444 2.11125,-0.144537 2.55625,-0.300287 0.44625,-0.154788 0.66875,-0.463875 0.66875,-0.923838 0,-0.251462 -0.145,-0.638174 -0.43375,-1.157224 -0.29,-0.519526 -0.74625,-1.120113 -1.37,-1.803226 L 330.8125,44.796875 329.4,46.1015 v 8.220737 c 0,1.68945 0.255,2.76025 0.76625,3.211913 0.51125,0.451662 1.625,0.75195 3.34375,0.899412 v 0.820313 h -12.86875 v -0.820313"
     id="path67"
     style="fill:#231f20;fill-opacity:1;fill-rule:nonzero;stroke:none" /><path
     d="M 353.22625,58.433562 C 354.8975,58.2568 355.98,57.957487 356.475,57.536588 356.97125,57.1152 357.21875,56.047337 357.21875,54.332 V 34.097625 c 0,-1.619125 -0.245,-2.67825 -0.7325,-3.17625 -0.48875,-0.497625 -1.575,-0.805625 -3.26,-0.92525 V 29.17575 h 24.17125 l 0.21875,6.507875 h -1.1475 c -0.385,-1.997125 -0.96375,-3.288625 -1.73375,-3.877 -0.77125,-0.586875 -2.49,-0.880875 -5.1575,-0.880875 h -6.23125 c -0.6725,0 -1.0875,0.107375 -1.24375,0.32075 -0.1575,0.214875 -0.235,0.61725 -0.235,1.207125 v 10.1205 h 6.99875 c 1.93125,0 3.16375,-0.288 3.695,-0.865125 0.53,-0.578125 0.9575,-1.747625 1.2825,-3.509875 h 1.09375 v 10.555237 h -1.09375 c -0.34,-1.770987 -0.77375,-2.943362 -1.305,-3.515612 -0.53125,-0.57275 -1.755,-0.859375 -3.6725,-0.859375 h -6.99875 v 11.23095 c 0,0.901362 0.28375,1.4331 0.855,1.595212 0.57,0.1626 2.2775,0.24365 5.12125,0.24365 3.08125,0 5.355,-0.329587 6.82125,-0.991212 1.46625,-0.661625 2.80125,-2.2627 4.0025,-4.80615 h 1.24625 l -2.035,7.60205 h -24.6525 v -0.820313"
     id="path69"
     style="fill:#231f20;fill-opacity:1;fill-rule:nonzero;stroke:none" /></svg>
